<?xml version="1.0" standalone="no"?>
<!DOCTYPE svg PUBLIC "-//W3C//DTD SVG 20010904//EN"
 "http://www.w3.org/TR/2001/REC-SVG-20010904/DTD/svg10.dtd">
<svg version="1.0" xmlns="http://www.w3.org/2000/svg"
 width="1024.000000pt" height="1024.000000pt" viewBox="0 0 1024.000000 1024.000000"
 preserveAspectRatio="xMidYMid meet">
<metadata>
Created by potrace 1.14, written by Peter Selinger 2001-2017
</metadata>
<g transform="translate(0.000000,1024.000000) scale(0.100000,-0.100000)"
fill="#000000" stroke="none">
<path d="M0 5120 l0 -5120 5120 0 5120 0 0 5120 0 5120 -5120 0 -5120 0 0
-5120z m4839 4041 c22 -31 27 -51 12 -51 -16 0 -21 -92 -22 -412 0 -174 -3
-326 -6 -337 -3 -13 -14 -21 -25 -21 -32 0 -240 -48 -372 -86 -168 -49 -348
-122 -565 -229 -285 -142 -495 -291 -721 -512 l-115 -113 -59 59 -58 58 88 86
c236 226 550 449 819 582 166 82 395 173 558 221 l127 37 0 149 c0 106 -3 148
-12 148 -22 0 -48 33 -48 62 0 41 34 72 72 64 53 -11 76 -69 43 -112 -11 -15
-14 -52 -15 -162 l0 -143 23 7 c12 4 67 17 122 29 l100 21 3 291 c2 249 0 293
-13 306 -8 9 -15 19 -15 22 0 10 44 64 52 64 4 1 16 -12 27 -28z m619 -1 c25
-33 27 -47 10 -52 -15 -5 -25 -388 -13 -523 l7 -84 36 -7 c21 -3 72 -14 115
-24 l77 -17 2 81 c5 178 4 200 -16 229 -25 34 -14 74 27 97 24 13 30 13 55 0
42 -24 43 -102 2 -115 -19 -6 -20 -15 -20 -155 l0 -149 43 -11 c92 -24 329
-106 452 -157 296 -124 578 -300 848 -530 117 -99 237 -214 237 -226 0 -4 -23
-33 -51 -62 l-51 -55 -131 125 c-285 274 -587 466 -991 632 -182 75 -398 138
-576 168 -52 9 -97 19 -100 22 -3 2 -7 172 -10 376 -4 303 -8 376 -20 394 -13
20 -12 24 10 48 13 14 26 25 30 25 3 0 16 -13 28 -30z m-878 -21 c13 -24 6
-50 -20 -74 -17 -15 -20 -31 -20 -97 0 -70 -2 -79 -17 -76 -15 3 -18 16 -21
83 -2 55 -8 85 -19 97 -18 21 -20 62 -4 82 26 31 81 23 101 -15z m559 -90 c11
-68 40 -259 65 -424 25 -165 55 -358 66 -430 10 -71 31 -206 45 -299 14 -93
24 -175 21 -182 -5 -14 -82 -114 -125 -163 -17 -20 -27 -40 -23 -49 3 -8 1
-13 -4 -9 -5 3 -10 -3 -10 -14 0 -24 1 -24 26 3 11 12 20 18 20 14 0 -4 29 15
65 43 36 28 65 49 65 46 0 -25 -92 -137 -205 -249 -127 -126 -137 -138 -140
-178 -3 -29 -2 -38 5 -28 7 12 10 11 16 -5 5 -11 16 -29 26 -39 16 -17 18 -18
18 -3 0 11 5 14 15 11 12 -5 13 -10 4 -20 -6 -8 -8 -14 -3 -14 5 1 42 52 83
115 41 63 76 113 78 111 3 -3 -44 -216 -77 -343 -6 -23 -5 -33 3 -33 7 1 102
20 212 44 110 23 201 42 202 42 1 -1 -41 -170 -93 -376 -52 -205 -94 -381 -94
-390 0 -9 -77 -120 -170 -246 l-170 -229 -49 -150 c-45 -136 -47 -147 -25
-120 14 17 47 55 73 85 27 30 87 101 135 158 47 56 86 99 86 95 0 -5 -9 -42
-21 -83 -73 -263 -108 -394 -105 -397 1 -2 74 6 162 16 87 11 175 21 195 23
l36 4 -34 -131 c-19 -71 -68 -254 -109 -405 -91 -336 -284 -1098 -284 -1122 0
-10 -4 -18 -8 -18 -4 0 -13 44 -19 97 -30 259 -84 688 -88 691 -2 2 -18 -6
-34 -18 -17 -12 -31 -17 -31 -12 0 10 116 168 130 177 24 15 5 25 -47 26 -32
1 -84 4 -116 8 l-57 6 35 50 c134 192 234 340 231 343 -4 3 -362 -64 -400 -75
-17 -5 -18 -1 -12 33 27 151 154 781 186 924 47 205 89 404 86 407 -1 1 -71
-16 -155 -38 -85 -22 -156 -37 -159 -35 -2 3 3 47 12 98 54 305 97 567 101
609 3 26 18 128 35 226 16 98 52 324 80 503 55 355 126 805 170 1080 16 96 34
219 41 272 7 54 14 96 16 94 2 -2 12 -59 22 -127z m596 119 c34 -15 43 -54 22
-91 -12 -20 -17 -52 -17 -103 0 -58 -3 -76 -15 -81 -24 -8 -26 -1 -32 86 -4
61 -10 85 -24 97 -26 23 -24 50 6 79 28 29 26 29 60 13z m-2321 -709 l14 -37
69 6 68 5 -48 -56 -49 -57 23 -68 c12 -37 24 -73 27 -81 3 -7 -26 9 -63 37
l-68 50 -60 -44 c-32 -24 -63 -44 -67 -44 -4 0 5 35 21 77 l29 78 -38 40 c-21
22 -45 48 -52 59 -14 18 -12 18 30 12 25 -4 56 -9 70 -12 23 -4 27 0 45 52 15
44 21 52 27 38 4 -11 14 -35 22 -55z m3479 -35 c1 0 30 2 65 5 34 4 62 5 62 2
0 -2 -20 -28 -45 -57 -25 -28 -45 -56 -45 -61 0 -5 11 -38 26 -72 14 -35 23
-65 21 -67 -1 -2 -32 16 -67 40 l-64 43 -59 -45 c-32 -24 -60 -42 -63 -40 -2
3 7 38 22 78 l26 73 -54 54 -53 55 72 -6 72 -6 18 56 18 57 23 -54 c13 -30 24
-54 25 -55z m-3939 -154 c68 -60 70 -144 6 -205 -27 -25 -39 -30 -83 -30 -63
0 -99 23 -122 80 -20 49 -13 94 22 136 50 59 122 67 177 19z m2648 -10 c309
-70 732 -244 984 -406 107 -69 300 -212 333 -248 21 -22 22 -26 7 -32 -14 -5
-14 -9 -4 -23 12 -14 11 -14 -4 -2 -10 7 -15 18 -12 23 3 5 0 8 -8 6 -12 -3
-91 50 -198 132 -112 86 -473 289 -483 273 -3 -5 5 -41 18 -82 13 -41 22 -77
20 -81 -2 -4 -23 -4 -47 -1 -46 6 -42 -1 -84 139 -2 8 -31 12 -99 12 -95 0
-96 0 -106 -27 -27 -72 -26 -75 44 -110 90 -44 321 -190 431 -272 110 -82 246
-210 364 -340 47 -53 90 -96 93 -96 4 0 41 39 82 86 l76 86 85 1 c47 1 86 -1
86 -5 0 -8 -147 -181 -226 -266 -64 -69 -110 -92 -55 -27 60 70 29 45 -67 -54
-54 -56 -130 -139 -169 -186 -39 -47 -83 -96 -97 -109 l-26 -25 -35 38 c-19
21 -35 40 -35 41 0 2 66 77 146 167 80 89 148 168 151 175 4 11 -174 223 -188
223 -3 0 -11 -11 -17 -24 -6 -13 -30 -49 -53 -79 l-42 -54 -84 70 c-45 39 -83
74 -83 77 0 4 11 17 25 30 l25 24 39 -38 c36 -35 61 -41 61 -14 0 7 10 31 21
56 18 37 19 46 8 56 -114 104 -261 211 -459 336 -63 39 -136 87 -161 107 l-46
34 21 42 c12 23 28 60 37 83 15 39 19 41 74 52 32 7 69 12 82 12 47 0 20 20
-84 60 -120 47 -376 116 -465 126 -58 7 -58 7 -58 40 0 30 3 34 23 29 12 -2
83 -18 159 -35z m1818 25 c40 -21 70 -74 70 -124 0 -34 -7 -49 -38 -82 -108
-116 -274 3 -205 148 30 65 109 91 173 58z m-2600 -20 c0 -30 7 -27 -135 -53
-104 -20 -303 -78 -459 -135 -77 -28 -76 -29 45 -48 l76 -11 23 -57 c12 -31
29 -66 37 -79 11 -18 12 -26 2 -38 -6 -8 -102 -75 -213 -148 -221 -147 -320
-219 -397 -291 l-51 -48 28 -58 c15 -33 31 -59 34 -59 3 0 19 14 35 30 16 17
34 30 41 30 16 0 48 -50 37 -60 -4 -4 -40 -35 -79 -68 l-72 -61 -42 57 c-23
31 -47 67 -53 80 -6 12 -14 22 -18 22 -8 0 -152 -161 -176 -198 -18 -26 -32
-6 146 -210 129 -148 133 -153 117 -175 -32 -46 -45 -59 -55 -56 -5 2 -47 47
-92 99 -148 173 -283 320 -293 320 -5 0 -1 -9 9 -20 10 -11 14 -20 9 -20 -5 0
0 -7 10 -15 11 -8 16 -15 12 -15 -5 0 -3 -8 4 -17 27 -38 -147 147 -218 232
l-76 90 84 8 84 7 56 -62 c30 -34 67 -76 82 -93 l27 -30 37 45 c75 89 241 253
337 333 119 99 315 231 465 312 61 33 111 65 111 70 1 6 -8 29 -19 53 l-19 43
-98 -3 -98 -3 -13 -60 c-7 -32 -18 -65 -24 -72 -11 -13 -79 -18 -91 -7 -3 4 5
28 18 55 26 50 33 99 15 99 -13 0 -135 -61 -225 -113 -110 -63 -201 -123 -323
-216 -63 -47 -126 -95 -140 -106 l-27 -19 19 22 c26 30 29 52 8 46 -32 -10 94
98 215 184 146 104 234 155 408 234 307 140 481 202 715 253 143 32 160 32
160 0z m-53 -83 c16 -10 33 -57 33 -92 0 -23 -6 -31 -24 -36 -33 -8 -46 2 -46
34 0 47 -11 73 -29 68 -135 -37 -131 -35 -131 -64 0 -39 -9 -48 -68 -70 l-53
-20 3 56 3 56 50 19 c119 45 235 66 262 49z m908 -31 c49 -17 93 -35 98 -40 5
-5 11 -27 14 -50 7 -48 -3 -51 -80 -25 -40 14 -47 20 -47 42 0 15 -4 32 -8 39
-8 12 -131 47 -139 39 -3 -3 -8 -26 -10 -51 -6 -52 -12 -58 -48 -49 -24 6 -25
8 -18 63 3 31 11 60 17 64 21 15 131 -1 221 -32z m-2548 -67 c14 -14 11 -21
-43 -77 -74 -76 -86 -87 -98 -80 -5 4 -6 1 -3 -4 4 -6 -1 -17 -10 -24 -15 -12
-16 -11 -11 9 5 19 4 21 -8 11 -7 -6 -11 -16 -7 -23 3 -6 3 -8 -2 -4 -4 4 -15
2 -24 -4 -19 -14 20 31 107 124 34 36 62 71 62 77 0 16 19 13 37 -5z m4013 7
c0 -5 43 -55 95 -110 63 -67 93 -105 89 -115 -5 -12 -24 0 -81 51 -42 37 -92
88 -113 112 -35 41 -37 46 -22 58 20 15 32 16 32 4z m-4546 -124 c38 -27 -2
-95 -41 -71 -25 16 -29 55 -7 71 10 7 21 13 24 13 3 0 14 -6 24 -13z m5102
-12 c12 -18 11 -24 -2 -43 -19 -27 -50 -28 -64 -3 -14 27 -13 37 6 56 20 20
42 16 60 -10z m-2152 -9 c-6 -15 41 -46 68 -46 38 -1 40 -17 9 -72 -17 -30
-31 -61 -31 -69 0 -8 21 -22 48 -32 l47 -17 21 26 c20 24 21 25 43 7 20 -17
21 -21 10 -47 -13 -27 -11 -30 24 -62 34 -31 67 -44 67 -26 1 4 10 18 20 31
l20 23 38 -34 38 -35 -28 -33 c-34 -42 -34 -47 1 -87 25 -30 29 -32 47 -18 27
21 29 19 44 -25 7 -22 15 -40 18 -40 3 0 25 10 49 22 33 17 43 27 40 40 -6 23
34 49 41 28 3 -8 16 -24 28 -37 13 -13 24 -27 24 -31 -1 -4 -34 -34 -75 -66
-41 -33 -75 -64 -74 -70 2 -33 18 -50 44 -51 32 0 42 -20 44 -84 l1 -33 44 6
c40 6 44 5 50 -16 12 -46 7 -54 -40 -66 -45 -12 -46 -13 -40 -50 3 -20 5 -43
6 -49 0 -9 17 -13 50 -13 l50 0 0 -51 0 -51 -50 4 c-55 3 -51 7 -64 -68 -6
-35 8 -44 67 -44 22 0 27 -4 27 -25 0 -24 -1 -25 -53 -19 l-53 6 -13 -53 c-18
-69 -93 -218 -126 -249 l-25 -24 28 70 c41 99 69 190 82 262 14 78 14 267 1
290 -6 9 -11 12 -11 6 0 -7 -16 -10 -41 -9 -29 2 -42 -2 -47 -13 -3 -8 -13 23
-23 71 -28 135 -88 258 -181 368 -48 58 -170 153 -259 202 l-59 32 4 155 c4
133 7 156 22 167 23 17 35 16 28 -1z m-813 -18 c15 -27 13 -301 -1 -306 -27
-10 -197 -123 -239 -159 -126 -109 -228 -297 -256 -470 -4 -24 -11 -43 -16
-43 -6 0 -8 4 -4 9 3 5 1 12 -5 16 -5 3 -10 0 -10 -7 0 -9 -3 -9 -10 2 -9 13
-10 13 -10 0 0 -13 -1 -13 -10 0 -6 10 -10 11 -10 3 0 -21 -20 -14 -29 10 -13
35 -24 -127 -16 -225 9 -107 35 -206 81 -313 20 -47 34 -88 32 -91 -7 -6 -70
82 -96 133 -11 21 -30 71 -43 111 l-23 72 -37 0 c-21 0 -41 -5 -45 -12 -5 -8
2 -9 24 -5 17 4 34 2 37 -3 4 -6 -10 -10 -33 -10 -33 0 -41 4 -46 23 -10 40
-7 44 44 51 l50 7 0 43 c0 51 -18 71 -56 62 -18 -5 -24 -3 -19 5 5 8 1 9 -14
4 -19 -6 -21 -3 -21 39 l0 45 48 3 47 3 3 52 3 52 -46 7 -47 7 7 36 c4 20 8
37 10 39 1 1 21 -1 43 -6 l40 -9 6 36 c16 93 16 93 42 87 17 -5 26 -1 34 13
21 40 11 56 -65 111 -41 30 -75 57 -75 60 0 3 16 22 35 42 38 41 71 43 61 4
-5 -19 2 -26 40 -44 24 -12 46 -22 49 -22 2 0 10 18 16 41 13 41 17 42 60 25
11 -5 24 4 42 27 l26 35 -29 37 c-17 21 -30 41 -29 44 0 3 16 19 36 35 l35 30
25 -32 c28 -36 35 -38 60 -17 10 8 27 21 38 29 18 13 19 18 8 46 -11 29 -10
34 10 51 21 17 22 17 43 -8 20 -25 21 -25 52 -9 17 9 38 16 47 16 22 0 19 23
-15 90 l-30 59 41 11 c22 6 48 19 57 30 23 25 39 24 53 -2z m-2130 -345 c108
-118 550 -618 628 -710 35 -43 50 -53 75 -53 25 -1 38 -10 69 -50 30 -39 34
-49 20 -49 -10 0 -63 -3 -119 -7 l-100 -6 -50 53 c-185 197 -202 219 -176 219
17 0 54 61 47 78 -6 15 -9 14 -25 -5 -10 -13 -23 -23 -28 -23 -5 0 -40 35 -78
78 -37 42 -97 109 -134 147 -109 117 -305 336 -308 345 -2 4 34 6 80 4 62 -3
86 -8 99 -21z m5138 -75 c-270 -298 -434 -473 -445 -476 -7 -2 -19 6 -26 17
-14 23 -38 28 -38 9 0 -7 16 -30 36 -50 l35 -38 -63 -68 c-35 -37 -87 -95
-116 -128 l-53 -60 -124 -1 c-91 -1 -123 2 -118 11 3 6 21 30 40 53 25 31 42
43 66 45 27 3 52 27 182 174 82 94 213 243 290 330 76 87 164 185 194 217 l54
57 85 0 84 0 -83 -92z m-4035 53 c20 -22 14 -56 -13 -70 -20 -11 -34 -4 -50
26 -14 28 -14 29 5 47 21 21 37 20 58 -3z m-1404 -141 c13 -24 3 -48 -21 -55
-26 -8 -49 11 -49 41 0 42 50 52 70 14z m5707 -7 c4 -10 -2 -23 -17 -35 -21
-17 -24 -17 -41 -2 -23 21 -24 32 -3 55 13 14 21 16 36 8 10 -6 22 -17 25 -26z
m-3410 -75 l42 -52 -62 -66 c-99 -102 -107 -122 -114 -247 -5 -102 -1 -144 33
-323 l6 -35 -25 25 c-28 27 -52 105 -66 213 -5 34 -9 49 -10 32 l-1 -30 -13
25 c-9 18 -19 24 -37 22 -25 -3 -25 -2 -24 75 1 70 6 87 43 162 70 142 143
251 170 251 9 0 35 -24 58 -52z m1130 30 c33 -37 93 -136 140 -233 38 -78 43
-97 41 -147 -2 -54 -4 -58 -28 -59 -24 -2 -24 -2 3 -6 31 -5 27 -22 -6 -24
-21 -1 -20 -2 3 -10 22 -7 20 -8 -12 -6 -41 3 -39 7 -54 -93 -10 -68 -43 -149
-66 -161 -19 -10 -20 -9 -14 15 3 14 15 78 27 143 20 122 19 274 -3 317 -6 10
-43 54 -84 98 -41 43 -74 84 -74 89 0 18 74 98 91 99 8 0 25 -10 36 -22z
m-3303 -81 c15 -21 18 -32 10 -44 -17 -28 -32 -26 -64 6 -26 26 -29 34 -20 51
15 28 47 22 74 -13z m5456 18 c17 -20 9 -45 -22 -68 -22 -17 -30 -18 -43 -7
-20 17 -19 32 6 64 23 29 41 33 59 11z m-5825 -125 c8 -25 -10 -50 -36 -50
-20 0 -36 40 -24 59 11 19 53 12 60 -9z m6183 -12 c2 -19 -2 -28 -17 -33 -27
-8 -41 1 -41 29 0 29 9 38 35 34 13 -2 21 -12 23 -30z m-5539 -105 c20 -23 22
-34 18 -75 -4 -28 -2 -50 4 -54 6 -3 8 -13 4 -22 -5 -15 10 -32 29 -32 6 0 1
7 -10 15 -10 8 -14 15 -8 15 13 0 199 -192 215 -221 8 -15 6 -19 -7 -19 -9 0
-73 58 -141 129 l-123 129 -35 -11 c-30 -9 -39 -8 -63 10 -37 28 -48 70 -28
116 26 63 99 73 145 20z m4934 26 c29 -13 57 -58 57 -92 0 -14 -10 -38 -23
-52 -18 -22 -31 -27 -69 -27 -47 0 -47 0 -175 -129 -79 -80 -131 -125 -136
-120 -10 10 43 80 98 131 15 14 50 51 78 84 44 51 50 63 49 97 -5 84 55 138
121 108z m-5343 -41 c14 -15 20 -34 18 -54 -1 -18 4 -39 11 -48 10 -11 10 -16
2 -16 -7 0 -9 -5 -5 -11 5 -8 1 -8 -14 0 -11 6 -34 8 -51 5 -38 -8 -81 31 -81
74 0 63 77 96 120 50z m5759 -4 c24 -31 26 -43 9 -78 -12 -29 -38 -40 -84 -37
-20 1 -37 -6 -49 -19 -10 -11 -24 -20 -32 -20 -8 0 -12 -4 -9 -9 3 -4 -7 -19
-22 -32 l-27 -24 23 26 c15 17 19 28 12 31 -7 2 4 19 24 38 27 27 36 43 36 69
0 72 78 108 119 55z m-4299 -99 c15 -19 -1 -65 -23 -65 -18 0 -37 21 -37 40 0
36 38 51 60 25z m2789 -7 c11 -29 -4 -58 -29 -58 -13 0 -22 9 -26 25 -12 47
39 77 55 33z m-4659 -43 c0 -28 -22 -47 -44 -39 -21 8 -21 50 1 62 24 14 43 4
43 -23z m6538 -2 c4 -30 -31 -49 -52 -27 -18 18 -18 17 -10 39 10 25 58 16 62
-12z m-4068 -33 c0 -5 9 -10 19 -10 11 0 23 -4 26 -10 8 -13 -6 -13 -39 0 -25
9 -36 30 -16 30 6 0 10 -4 10 -10z m-2384 -15 c8 -20 -13 -45 -37 -45 -23 0
-32 15 -24 40 8 24 53 28 61 5z m3922 8 c-10 -2 -26 -2 -35 0 -10 3 -2 5 17 5
19 0 27 -2 18 -5z m2442 -23 c0 -25 -4 -30 -25 -30 -27 0 -41 20 -31 45 3 8
17 15 31 15 21 0 25 -5 25 -30z m-2447 3 c-7 -2 -21 -2 -30 0 -10 3 -4 5 12 5
17 0 24 -2 18 -5z m-1484 -29 c3 -4 -5 -4 -19 -1 -14 4 -31 7 -37 7 -7 0 -13
4 -13 9 0 10 58 -3 69 -15z m1484 9 c-7 -2 -21 -2 -30 0 -10 3 -4 5 12 5 17 0
24 -2 18 -5z m-6 -19 c-3 -3 -12 -4 -19 -1 -8 3 -5 6 6 6 11 1 17 -2 13 -5z
m-1514 -11 c-7 -2 -19 -2 -25 0 -7 3 -2 5 12 5 14 0 19 -2 13 -5z m1510 -20
c-7 -2 -21 -2 -30 0 -10 3 -4 5 12 5 17 0 24 -2 18 -5z m-1910 -330 c97 -120
99 -124 82 -143 -10 -11 -21 -20 -26 -20 -5 0 -164 184 -218 252 -11 15 -10
22 10 49 l23 32 15 -23 c8 -13 60 -79 114 -147z m2487 111 c0 -2 -52 -67 -116
-144 l-117 -139 -19 24 -20 25 113 144 113 145 23 -25 c13 -14 23 -27 23 -30z
m-2994 12 c11 -4 210 -233 273 -314 28 -37 38 -43 60 -39 14 3 35 7 45 9 14 2
39 -21 88 -81 38 -46 67 -88 65 -95 -2 -6 -16 -11 -30 -11 -15 1 -27 -3 -27
-7 0 -4 -7 -8 -16 -8 -8 0 -13 -4 -10 -9 3 -5 0 -14 -8 -20 -11 -9 -15 -9 -19
1 -4 10 -8 10 -16 -2 -10 -14 -13 -10 -11 15 1 3 -7 18 -16 34 -19 32 -13 61
12 61 13 0 14 -3 4 -15 -14 -17 -5 -65 12 -65 9 0 9 3 0 12 -15 15 -16 48 0
48 6 0 23 -10 37 -22 l26 -23 -20 25 c-11 14 -26 29 -33 33 -7 5 -10 12 -7 18
4 5 -5 5 -20 -1 -21 -8 -26 -7 -22 2 2 7 10 12 16 10 6 -1 11 2 11 8 0 15 -26
12 -39 -3 -6 -8 -7 -17 -3 -22 4 -4 -3 -3 -15 4 -12 6 -43 36 -68 67 -25 31
-45 53 -45 49 0 -8 38 -58 68 -88 9 -10 16 -26 14 -35 -2 -14 -1 -14 6 -3 8
11 11 9 17 -8 8 -28 -23 -70 -37 -49 -6 10 -8 10 -8 1 0 -7 -5 -13 -11 -13 -7
0 -9 10 -5 28 5 19 4 23 -3 12 -8 -12 -13 -12 -30 4 -11 10 -17 24 -15 31 3 7
1 16 -4 19 -5 3 -8 -5 -7 -19 2 -17 -1 -22 -11 -18 -13 5 -18 17 -15 36 0 4
-5 6 -11 5 -7 -2 -13 4 -13 12 0 8 7 14 15 12 8 -2 11 0 7 4 -13 13 -38 13
-30 1 3 -7 -3 -3 -16 7 -13 12 -19 26 -16 35 3 8 3 12 -1 8 -10 -10 -45 23
-37 36 3 5 1 7 -4 4 -6 -4 -22 9 -37 27 -14 19 -32 40 -39 48 -7 7 -27 34 -45
60 -60 88 9 80 -663 76 -330 -1 -599 -5 -599 -8 0 -4 79 -107 176 -231 254
-323 571 -744 630 -834 l19 -29 -21 14 c-42 30 -424 443 -689 746 -290 331
-380 436 -383 448 -2 8 197 10 780 8 431 -1 788 -4 794 -6z m4893 -13 c-27
-35 -78 -94 -316 -366 -384 -438 -772 -855 -773 -831 0 17 324 448 678 901
110 140 146 193 136 197 -9 3 -278 5 -599 3 l-583 -2 -24 -23 c-14 -12 -28
-19 -32 -15 -4 4 -4 0 0 -10 7 -20 -6 -22 -26 -4 -12 10 -12 9 -1 -5 11 -15 8
-24 -24 -63 -21 -24 -42 -42 -48 -38 -6 3 -7 1 -3 -5 4 -7 -1 -20 -11 -31 -10
-11 -45 -56 -78 -100 -33 -44 -64 -80 -68 -81 -5 0 -6 4 -3 8 3 5 -1 9 -9 9
-11 0 -12 -4 -4 -14 9 -10 5 -22 -17 -49 -16 -20 -37 -48 -46 -62 -10 -15 -18
-21 -18 -14 0 7 -14 21 -31 31 -18 11 -25 21 -18 23 9 3 6 15 -11 44 -14 21
-24 41 -23 44 1 3 -8 7 -19 7 -18 2 -19 1 -4 -10 16 -11 14 -16 -18 -45 -33
-30 -65 -47 -38 -20 20 20 14 32 -7 14 -15 -13 -26 -15 -52 -9 l-33 9 50 55
c27 30 62 70 77 88 27 32 30 33 64 23 42 -13 29 -25 226 206 l130 152 795 0
c755 0 794 -1 781 -17z m-3889 -31 l55 -27 -2 -129 c-2 -117 0 -131 17 -143
14 -10 17 -21 13 -45 -5 -35 -13 -51 -13 -27 0 8 -30 29 -66 47 l-66 33 4 71
c2 50 -1 73 -10 76 -17 5 -17 172 1 172 6 0 37 -13 67 -28z m1398 -51 c2 -62
-1 -80 -13 -85 -11 -4 -15 -22 -15 -76 0 -53 -4 -72 -15 -76 -8 -4 -13 -10
-10 -14 3 -4 -2 -11 -11 -14 -10 -4 -13 -2 -8 6 4 6 -7 3 -25 -8 -17 -10 -31
-24 -31 -32 0 -7 -7 -21 -16 -29 -13 -13 -13 -18 -2 -24 11 -7 10 -11 -2 -19
-13 -8 -15 0 -18 50 -2 40 2 67 12 82 13 20 13 39 4 131 l-11 109 -29 -4 c-47
-7 -32 10 25 26 28 9 70 25 92 35 69 33 71 31 73 -58z m-4078 -86 c26 -32 -13
-81 -47 -59 -35 22 -23 74 17 74 10 0 23 -7 30 -15z m6728 3 c32 -32 -3 -88
-41 -67 -22 13 -22 55 1 68 22 13 26 13 40 -1z m-6085 -15 c-7 -2 -21 -2 -30
0 -10 3 -4 5 12 5 17 0 24 -2 18 -5z m4943 -33 c228 0 313 -3 308 -11 -4 -7 0
-9 12 -5 11 3 26 1 34 -4 11 -7 6 -10 -21 -10 -19 0 -40 5 -47 12 -7 7 -12 8
-12 3 0 -15 -289 -17 -409 -3 -77 8 -106 8 -109 0 -2 -7 -29 -9 -86 -5 l-82 6
-94 -106 c-52 -58 -99 -104 -105 -102 -5 1 -19 -5 -29 -14 -16 -13 -18 -13
-11 -1 18 31 78 100 83 95 3 -3 -3 -15 -14 -26 l-19 -22 27 17 c24 16 26 21
16 40 -10 18 -9 19 4 8 13 -10 22 -4 59 36 24 26 49 56 54 67 11 18 85 37 113
29 8 -2 155 -4 328 -4z m-4061 -6 c9 -4 25 -24 36 -46 12 -23 24 -36 31 -32 6
4 8 3 4 -4 -3 -6 -1 -16 6 -24 7 -7 19 -22 27 -33 7 -11 -15 10 -50 47 l-64
68 -370 5 c-203 3 -376 6 -383 5 -7 0 -10 5 -7 10 7 11 741 15 770 4z m105
-79 c7 -9 8 -15 2 -15 -5 0 -12 7 -16 15 -3 8 -4 15 -2 15 2 0 9 -7 16 -15z
m4241 -64 c-23 -38 -47 -76 -54 -83 -7 -7 -41 -56 -76 -108 -35 -52 -72 -101
-82 -108 -11 -7 -37 -45 -59 -85 -22 -40 -40 -67 -40 -62 -1 6 -8 -3 -16 -20
-8 -16 -12 -21 -9 -10 5 16 4 18 -7 7 -7 -7 -13 -20 -13 -30 0 -9 -7 -17 -15
-17 -20 0 -33 -34 -20 -50 9 -10 7 -13 -7 -10 -22 3 -43 -12 -43 -33 0 -12 4
-12 21 4 22 19 22 19 8 -3 -8 -14 -20 -21 -30 -18 -9 3 -22 -1 -29 -10 -8 -10
-9 -15 -1 -15 6 0 11 4 11 10 0 5 7 7 16 3 8 -3 13 -12 9 -20 -4 -11 -1 -13
12 -9 15 6 14 4 -2 -16 -11 -13 -22 -25 -24 -28 -2 -3 0 5 3 18 5 13 3 22 -3
22 -6 0 -11 -7 -11 -15 0 -8 -5 -15 -10 -15 -6 0 -8 -10 -5 -22 3 -14 -2 -35
-14 -52 -19 -28 -19 -28 -30 -7 -7 12 -16 19 -20 16 -5 -2 -14 2 -21 10 -7 9
-8 15 -2 15 5 0 24 21 41 47 45 68 227 320 366 508 66 89 136 185 155 213 19
27 37 49 38 47 2 -2 -15 -35 -37 -74z m-5028 -22 c40 -54 55 -82 51 -95 -4
-14 -3 -16 4 -5 6 8 12 9 16 3 3 -6 2 -13 -4 -17 -5 -3 -10 -11 -10 -17 0 -7
4 -7 14 1 10 9 16 8 26 -4 11 -13 10 -14 -3 -10 -8 4 -18 1 -22 -5 -4 -6 -1
-9 7 -8 7 2 12 -3 10 -11 -3 -12 -1 -12 14 0 10 8 15 9 11 3 -8 -14 29 -75 45
-72 7 2 13 -4 13 -12 1 -8 6 -14 11 -13 6 1 10 -11 9 -27 -1 -16 2 -27 7 -24
5 4 7 13 4 23 -4 9 3 5 14 -9 11 -14 20 -28 20 -32 0 -11 -21 -21 -28 -13 -3
3 0 10 8 15 17 11 9 13 -14 4 -26 -10 2 -41 33 -36 35 5 58 -28 55 -77 -1 -27
0 -31 8 -18 5 10 6 23 3 30 -4 6 5 0 19 -15 19 -22 24 -36 21 -66 -4 -48 6
-68 29 -55 15 8 15 12 -5 37 -12 15 -19 29 -16 32 8 8 49 -55 42 -65 -3 -5 -1
-12 5 -16 5 -3 10 -13 10 -22 0 -14 -3 -14 -20 2 -19 17 -20 17 -20 1 0 -15
-2 -15 -13 -4 -23 22 -37 56 -31 71 3 8 1 18 -5 22 -7 3 -8 0 -5 -9 10 -27 -4
-17 -24 17 -11 18 -19 46 -17 64 1 27 -1 31 -12 21 -11 -9 -11 -13 -1 -19 7
-4 10 -11 6 -14 -4 -4 -14 6 -24 22 -10 15 -33 46 -51 67 -23 28 -31 46 -27
60 4 16 3 17 -4 7 -8 -11 -12 -9 -23 10 -6 13 -18 30 -26 37 -8 8 -11 23 -7
35 5 16 3 19 -10 14 -9 -4 -16 -2 -16 4 0 6 -15 29 -34 52 -38 48 -91 137 -81
137 3 0 3 5 -1 11 -4 8 -9 7 -15 -2 -6 -10 -9 -7 -9 11 0 14 -3 36 -6 50 -8
31 -5 27 69 -71z m4217 61 c-6 -12 -14 -20 -17 -17 -2 3 1 14 8 26 17 26 24
19 9 -9z m-3395 -27 l18 -28 -21 19 c-12 11 -22 23 -22 28 0 14 7 9 25 -19z
m775 -219 l0 -161 -59 -7 c-70 -8 -128 -43 -184 -110 -37 -45 -39 -46 -98 -46
l-60 0 33 46 c18 26 65 80 103 120 60 63 78 75 128 89 l58 17 -1 131 c-1 73
-1 141 -1 152 1 16 9 11 41 -25 l39 -45 1 -161z m1932 -70 c28 -7 65 -27 92
-50 48 -42 166 -179 166 -193 0 -5 -23 -11 -52 -13 -49 -3 -53 -1 -87 36 -87
96 -117 115 -197 123 l-54 6 0 165 0 166 38 39 37 38 5 -152 5 -153 47 -12z
m-382 282 c0 -2 -8 -10 -17 -17 -16 -13 -17 -12 -4 4 13 16 21 21 21 13z
m-2227 -132 c-3 -8 0 -14 7 -14 6 0 8 -5 5 -10 -3 -6 1 -13 9 -16 9 -3 16 -11
16 -17 0 -21 -43 32 -45 54 -1 13 -7 25 -15 27 -8 3 -10 0 -5 -9 5 -8 6 -12 2
-9 -3 3 -6 10 -7 15 -1 6 -6 16 -12 23 -6 6 -7 12 -2 12 4 0 -1 10 -12 23 -10
13 0 3 23 -21 23 -25 39 -51 36 -58z m-82 69 c13 -16 12 -17 -3 -4 -10 7 -18
15 -18 17 0 8 8 3 21 -13z m1076 -35 c-3 -7 -5 -2 -5 12 0 14 2 19 5 13 2 -7
2 -19 0 -25z m-1276 -43 c24 -16 75 -61 114 -100 77 -76 378 -407 549 -602
l106 -122 -36 -7 c-28 -5 -39 -3 -46 10 -14 25 -85 105 -119 133 -21 18 -46
28 -79 31 -45 4 -52 2 -81 -27 -27 -27 -31 -37 -26 -68 7 -39 80 -158 103
-167 9 -3 115 -6 237 -6 122 0 232 -3 243 -6 32 -8 299 -330 343 -413 23 -42
-6 -19 -83 64 -77 84 -78 85 -126 85 -27 0 -61 5 -76 10 -15 6 -28 9 -30 7 -3
-2 28 -52 67 -111 39 -59 70 -109 68 -110 -2 -2 -40 23 -84 56 -85 64 -121 85
-131 75 -3 -3 27 -54 68 -114 41 -59 88 -133 105 -163 55 -98 113 -209 113
-216 0 -4 -45 36 -99 89 -88 85 -131 115 -131 90 0 -14 324 -403 335 -403 1 0
-2 23 -8 50 -7 35 -7 58 1 74 6 13 8 33 5 45 -4 15 -1 21 10 21 8 0 40 -39 72
-87 44 -69 53 -89 40 -91 -9 -2 -23 2 -31 9 -12 10 -11 2 4 -39 11 -28 15 -53
10 -54 -5 -2 -6 -11 -3 -21 4 -9 11 -14 16 -11 5 3 6 -2 3 -10 -5 -13 -8 -13
-20 -1 -8 7 -14 20 -14 27 0 7 -6 4 -12 -7 -16 -30 -17 -30 -34 -9 -12 15 -15
16 -10 2 2 -9 -2 -19 -10 -22 -9 -3 -12 -10 -9 -16 4 -6 -10 -3 -29 7 -20 9
-36 22 -36 28 0 6 -14 34 -32 61 -40 62 -37 58 -44 51 -3 -3 3 -16 15 -28 12
-13 21 -28 21 -33 -1 -18 -63 57 -153 187 -123 175 -261 363 -513 698 -121
162 -242 326 -269 364 -27 39 -146 203 -265 365 -119 162 -242 332 -274 378
l-58 84 139 -4 c136 -3 141 -4 184 -33z m4029 29 c0 -8 -34 -55 -361 -505
-134 -185 -265 -365 -290 -400 -105 -147 -375 -507 -408 -545 -40 -46 -100
-128 -281 -384 -172 -244 -226 -311 -247 -303 -10 4 -14 2 -10 -4 4 -7 0 -10
-10 -9 -10 2 -21 -2 -25 -8 -5 -6 -8 -2 -8 12 0 33 -14 27 -56 -23 -20 -25
-40 -43 -43 -39 -3 3 2 12 12 19 10 7 14 16 8 19 -5 4 -12 2 -16 -4 -4 -6 -11
-8 -16 -4 -5 3 -7 10 -3 15 3 5 9 7 13 4 9 -5 35 74 27 83 -3 3 -9 -9 -12 -27
-4 -17 -10 -34 -14 -36 -5 -3 -6 5 -2 17 3 15 2 19 -7 14 -11 -7 23 60 40 78
16 17 10 26 -16 26 -14 0 -25 3 -25 7 0 4 24 44 53 90 56 91 82 104 82 43 1
-19 4 -40 8 -47 4 -7 1 -29 -8 -49 -34 -81 -5 -57 160 136 155 180 184 220
161 220 -9 0 -59 -42 -112 -92 -53 -51 -100 -94 -105 -96 -31 -12 163 321 277
476 16 21 15 22 -5 22 -12 0 -61 -31 -108 -70 -48 -38 -90 -70 -95 -70 -5 0
23 47 62 105 74 110 82 130 51 120 -11 -3 -45 -8 -75 -10 -54 -4 -57 -6 -123
-75 -37 -40 -72 -79 -78 -87 -7 -9 -17 -14 -24 -12 -14 5 91 150 236 325 l83
101 98 6 c53 4 166 7 251 7 l153 0 35 37 c48 54 86 134 77 167 -14 58 -87 82
-157 52 -31 -13 -100 -81 -142 -140 -17 -23 -26 -27 -56 -24 l-36 3 127 147
c70 81 192 219 270 305 279 307 365 387 434 404 38 9 256 11 256 3z m-3550
-69 c0 6 4 3 9 -5 6 -8 7 -18 4 -23 -6 -10 -82 72 -82 88 0 6 15 -8 34 -30 19
-22 35 -35 35 -30z m2658 33 c0 -17 -6 -23 -23 -23 -14 0 -21 5 -18 13 3 6 11
12 19 12 8 0 14 5 14 10 0 6 2 10 4 10 2 0 4 -10 4 -22z m-1944 -18 c35 -20
58 -41 66 -60 12 -29 15 -30 76 -30 l64 0 0 -30 c0 -26 -4 -30 -27 -30 -16 0
-45 4 -65 9 -35 8 -37 7 -27 -10 13 -25 9 -100 -5 -92 -41 25 -125 85 -138
100 -13 14 -16 37 -16 96 1 42 5 77 10 77 4 0 33 -14 62 -30z m1392 -57 l-1
-87 -83 -58 -84 -59 4 51 c2 36 -1 50 -10 50 -7 0 -11 4 -8 9 3 5 -16 12 -44
16 -40 6 -50 11 -50 26 0 17 8 19 70 19 68 0 70 1 70 24 0 20 13 32 63 60 34
20 65 36 68 36 3 0 5 -39 5 -87z m-3822 61 c19 -19 20 -36 4 -52 -26 -26 -68
-9 -68 28 0 11 29 40 40 40 5 0 16 -7 24 -16z m6240 -3 c23 -25 6 -61 -29 -61
-33 0 -49 30 -29 58 19 27 36 28 58 3z m-5485 -86 c0 -5 -6 -1 -14 9 -8 11
-15 24 -15 30 0 5 7 1 15 -10 8 -10 14 -23 14 -29z m-339 -127 c0 -4 -13 -22
-28 -39 l-28 -32 -43 31 c-23 17 -47 32 -52 34 -6 2 -1 33 12 73 l21 70 59
-65 c32 -36 59 -68 59 -72z m5502 53 c10 -50 10 -65 1 -68 -7 -3 -28 -15 -48
-29 -20 -13 -39 -24 -43 -24 -10 0 -42 55 -42 72 0 19 102 130 111 121 4 -4
13 -37 21 -72z m-6039 -123 c42 -49 8 -112 -59 -106 -49 4 -74 41 -59 85 19
53 81 64 118 21z m6527 2 c24 -24 26 -57 5 -87 -19 -28 -46 -33 -84 -17 -30
13 -36 25 -31 69 5 52 72 73 110 35z m-3872 -109 c28 -23 52 -46 52 -51 0 -22
-44 -8 -99 32 -13 10 -27 15 -31 13 -5 -3 -12 0 -16 6 -4 8 -3 9 4 5 30 -18 7
4 -33 33 -33 23 -45 39 -45 57 0 25 0 25 58 -14 31 -22 81 -58 110 -81z m1282
85 c0 -18 -16 -34 -74 -72 -41 -27 -75 -53 -75 -57 -1 -5 12 1 28 12 35 25 42
26 34 4 -4 -10 -2 -14 4 -10 5 3 10 0 10 -8 0 -10 -6 -11 -24 -4 -12 5 -23 5
-23 1 0 -5 -22 -9 -50 -9 -27 0 -50 3 -50 8 0 11 197 158 213 159 4 0 7 -11 7
-24z m-3487 -56 c39 -12 67 -26 67 -34 0 -8 -9 -56 -19 -107 -34 -168 -46
-300 -45 -499 1 -283 33 -476 123 -747 38 -111 47 -152 40 -170 -4 -12 -11
-23 -14 -23 -2 0 0 12 6 26 5 15 7 29 4 32 -3 3 -5 0 -5 -6 0 -19 -31 -42 -58
-43 -15 0 -21 -3 -14 -6 6 -2 12 -11 12 -20 0 -12 -2 -12 -16 1 -8 9 -19 14
-23 12 -4 -3 -26 44 -49 104 -96 248 -146 484 -168 784 l-7 99 22 -22 c11 -11
28 -21 36 -21 17 0 55 35 55 50 0 15 -38 50 -54 50 -7 0 -19 -7 -26 -15 -7 -8
-17 -15 -22 -15 -12 0 -1 184 23 380 27 215 28 222 48 216 9 -3 46 -15 84 -26z
m5631 13 c25 -90 56 -361 56 -497 l0 -98 -19 23 c-19 23 -21 23 -48 9 -35 -20
-40 -50 -13 -75 20 -19 23 -19 51 -3 l29 17 0 -78 c0 -209 -74 -560 -168 -798
-28 -72 -39 -90 -49 -81 -7 6 -13 7 -13 3 0 -4 -7 -2 -15 5 -8 6 -18 9 -24 6
-5 -4 -12 3 -16 14 -4 11 -10 18 -15 15 -23 -14 -14 48 22 153 85 251 120 473
121 757 1 206 -26 454 -57 547 -13 36 -13 40 8 52 49 31 60 34 71 22 5 -6 9
-9 7 -7 -2 5 45 28 60 30 4 1 9 -7 12 -16z m-2183 -45 c-23 -18 -47 -16 -35 3
3 5 9 7 14 4 4 -3 11 2 14 11 3 8 11 12 18 8 8 -5 4 -13 -11 -26z m-1581 -7
c59 -41 77 -133 37 -192 -53 -79 -141 -87 -210 -18 -39 38 -39 40 -35 99 4 49
9 65 33 90 49 51 120 59 175 21z m1957 -8 c18 -13 36 -36 39 -51 3 -15 8 -33
10 -41 16 -52 -54 -144 -120 -157 -71 -13 -156 59 -156 133 0 125 128 191 227
116z m-3187 -4 c0 -6 -4 -7 -10 -4 -5 3 -10 11 -10 16 0 6 5 7 10 4 6 -3 10
-11 10 -16z m4800 -144 c51 -265 49 -629 -4 -885 -46 -217 -92 -337 -251 -651
-13 -25 -20 -24 -22 1 -1 11 2 18 7 15 10 -6 24 51 15 65 -3 5 19 62 50 126
143 295 203 591 191 954 -5 173 -24 345 -47 433 -9 33 -8 41 8 52 10 8 21 11
25 7 3 -4 16 -56 28 -117z m-5288 103 c15 -12 15 -21 -2 -108 -78 -400 -44
-844 90 -1182 22 -55 37 -105 33 -111 -3 -7 -2 -9 2 -4 8 7 80 -126 90 -166 2
-9 7 -23 11 -30 6 -9 4 -9 -8 1 -13 10 -18 10 -24 1 -4 -8 -3 -9 4 -5 7 4 12
5 12 2 0 -2 3 -13 7 -23 4 -12 -3 -8 -21 11 -15 15 -25 35 -22 43 3 8 2 12 -3
9 -9 -6 -77 129 -123 244 -47 117 -94 293 -114 425 -22 145 -26 525 -6 645 26
162 46 260 52 260 3 0 13 -6 22 -12z m2038 2 c0 -5 -2 -10 -4 -10 -3 0 -8 5
-11 10 -3 6 -1 10 4 10 6 0 11 -4 11 -10z m-1474 -22 c4 -7 3 -8 -4 -4 -17 10
-14 -6 5 -29 13 -16 15 -17 10 -2 -11 31 10 18 38 -24 15 -23 21 -38 13 -33
-7 4 4 -9 25 -30 41 -41 61 -81 50 -99 -4 -7 1 -6 10 2 15 12 17 12 11 -4 -5
-13 -4 -16 4 -11 16 10 15 -7 0 -23 -11 -10 -9 -11 5 -5 21 8 70 -43 62 -64
-3 -7 -1 -11 4 -8 18 11 32 -20 21 -48 -13 -36 -13 -39 4 -24 7 7 11 20 9 28
-3 8 5 4 16 -9 20 -22 21 -25 5 -42 -10 -11 -14 -22 -11 -26 4 -3 7 0 7 8 1 8
7 3 16 -11 13 -22 14 -22 9 -3 -8 31 10 37 25 8 10 -19 10 -27 1 -39 -7 -8 -8
-17 -3 -20 6 -3 13 1 16 10 3 8 10 12 16 9 6 -4 8 -10 6 -13 -6 -9 20 -57 31
-57 4 0 7 -4 5 -8 -1 -5 2 -6 7 -3 5 3 19 -10 30 -30 19 -32 20 -37 5 -51 -10
-11 -14 -25 -10 -42 4 -14 8 -33 9 -41 3 -21 45 -53 62 -46 10 3 12 0 8 -11
-4 -11 -2 -14 8 -11 8 3 13 16 12 29 -1 13 1 19 3 12 3 -7 12 -9 21 -6 11 4
14 2 9 -5 -4 -7 -2 -20 4 -29 11 -17 11 -17 6 0 -9 30 2 19 51 -50 26 -38 65
-90 85 -118 26 -34 36 -56 32 -69 -5 -14 -3 -18 10 -13 8 3 18 1 22 -5 4 -7 3
-8 -4 -4 -13 8 -28 -55 -19 -79 4 -8 2 -17 -3 -20 -6 -3 -1 -16 10 -27 11 -12
23 -18 27 -13 5 4 2 10 -4 12 -18 7 -16 30 3 37 10 4 14 12 10 22 -5 13 -4 14
7 6 8 -7 18 -8 22 -4 5 4 5 -1 2 -10 -4 -11 3 -22 19 -32 13 -9 24 -21 24 -28
0 -6 8 -17 18 -25 15 -13 15 -13 -5 -4 -16 8 -24 8 -29 -1 -4 -7 -4 -10 1 -6
11 10 35 -10 35 -29 0 -12 -3 -13 -13 -4 -8 6 -17 8 -20 4 -4 -3 -9 1 -13 10
-3 9 -12 13 -20 10 -10 -4 -13 0 -8 13 5 15 4 16 -4 5 -6 -8 -7 -21 -4 -30 11
-31 -24 7 -72 77 -25 37 -54 78 -65 92 -11 13 -18 27 -15 31 2 4 -3 10 -12 13
-8 3 -12 10 -9 16 4 6 14 1 25 -12 11 -13 19 -18 20 -11 0 6 -5 15 -10 18 -7
4 -6 13 1 26 15 28 6 45 -11 23 -13 -16 -13 -17 0 -9 8 4 12 5 8 1 -3 -4 -10
-8 -15 -8 -4 0 -13 -4 -18 -8 -7 -6 -27 13 -54 48 -24 31 -35 49 -24 39 17
-15 23 -16 29 -5 4 7 4 10 -1 6 -13 -12 -54 27 -121 119 -131 178 -142 197
-138 228 3 24 2 26 -4 10 -8 -18 -11 -16 -35 20 -15 22 -42 62 -61 89 -20 27
-33 53 -30 58 3 5 0 7 -6 6 -7 -2 -23 14 -36 35 -24 37 -14 53 15 25 10 -10
10 -8 0 10 -8 12 -20 20 -27 17 -9 -3 -11 1 -7 15 4 14 2 20 -6 18 -9 -2 -13
11 -13 44 0 36 -3 45 -12 37 -6 -5 -17 -8 -24 -7 -7 2 -15 -4 -17 -12 -4 -13
-3 -13 6 0 7 9 11 10 11 3 0 -26 -19 -21 -38 9 -14 22 -17 35 -10 39 6 4 7 12
3 19 -5 9 -4 11 3 6 7 -4 9 -17 6 -31 -6 -26 11 -43 20 -19 8 20 -22 77 -36
68 -7 -5 -9 1 -4 19 3 14 2 29 -4 32 -5 3 -11 -4 -11 -17 -1 -20 -2 -21 -6 -3
-3 11 -11 27 -19 36 -8 9 -11 20 -7 24 5 5 1 4 -8 -3 -9 -6 -19 -9 -23 -5 -4
4 -4 -1 0 -11 5 -13 9 -14 14 -5 5 7 7 1 7 -14 -1 -15 -3 -27 -4 -27 -1 0 -10
14 -18 30 -15 28 -14 31 2 37 10 4 22 12 26 20 10 16 14 16 23 1z m1421 -132
l33 -21 -2 -135 -2 -135 -3 125 -4 125 -27 12 c-33 15 -82 60 -82 75 0 5 12 2
28 -8 15 -9 42 -27 59 -38z m1343 35 c0 -16 -63 -74 -92 -83 -5 -2 -10 -43
-11 -91 -1 -48 -5 -87 -9 -87 -5 0 -8 45 -8 100 l0 99 58 40 c31 22 58 40 60
40 1 1 2 -8 2 -18z m-3984 -9 c26 -17 36 -53 24 -83 -31 -75 -134 -32 -114 47
9 34 62 55 90 36z m6612 -8 c26 -18 30 -74 6 -98 -16 -17 -61 -21 -81 -8 -21
13 -34 61 -23 82 21 40 62 50 98 24z m-5380 -14 c7 -11 11 -20 9 -20 -2 0 -12
9 -22 20 -10 11 -14 20 -9 20 5 0 15 -9 22 -20z m4042 -45 c0 3 5 3 11 0 7 -5
4 -15 -9 -29 -11 -11 -33 -42 -50 -69 l-30 -48 -10 30 c-9 26 -8 31 9 36 20 7
23 18 9 50 -5 12 -9 14 -9 6 -1 -8 -4 -12 -7 -9 -3 4 -1 15 5 26 11 20 26 23
49 9 6 -5 12 -4 12 1 0 15 -26 33 -35 24 -5 -4 -5 -1 0 7 7 11 13 9 32 -13 12
-15 23 -24 23 -21z m-4287 -40 l37 -19 0 -257 c0 -294 0 -296 83 -422 102
-155 187 -261 225 -281 83 -42 101 -73 66 -115 -29 -35 -29 -35 29 -98 18 -19
26 -36 22 -44 -5 -7 -4 -10 2 -6 6 4 13 0 17 -8 3 -8 1 -17 -4 -20 -17 -11
-171 148 -289 299 -131 169 -179 242 -216 333 -25 62 -25 65 -25 364 0 165 3
299 8 297 4 -2 24 -12 45 -23z m4627 -278 l0 -303 -36 -74 c-44 -94 -81 -152
-163 -260 -118 -155 -168 -214 -244 -289 -65 -64 -78 -73 -91 -61 -14 11 -9
20 39 72 30 32 55 63 55 67 0 5 -11 16 -25 25 -14 9 -25 26 -25 38 0 27 65 88
94 88 21 0 107 106 213 265 92 138 88 117 91 421 l3 271 37 21 c20 12 40 22
45 22 4 0 7 -136 7 -303z m-4288 271 c-15 -15 -16 -31 0 -22 8 5 9 2 5 -11 -4
-9 -2 -25 5 -34 12 -14 11 -14 -4 -2 -10 7 -18 20 -18 27 0 8 -5 14 -10 14 -6
0 -3 11 6 25 9 14 19 23 22 20 3 -3 0 -11 -6 -17z m3833 -38 c-10 -11 -15 -25
-12 -32 4 -8 6 -7 6 5 1 9 6 17 11 17 15 0 12 -29 -5 -47 -8 -8 -12 -20 -8
-26 5 -8 9 -6 11 6 2 9 8 17 13 17 16 0 10 -19 -11 -32 -11 -7 -20 -18 -20
-24 0 -6 -18 -37 -41 -70 -42 -60 -69 -93 -54 -64 5 9 4 12 -1 7 -5 -5 -9 -14
-9 -20 -1 -17 -34 -70 -84 -135 -24 -31 -57 -78 -73 -105 -16 -26 -34 -44 -40
-41 -5 3 -8 0 -6 -8 3 -15 -100 -158 -114 -158 -5 0 -7 -4 -4 -8 10 -17 -133
-211 -151 -205 -7 3 -9 -3 -6 -15 3 -11 -5 -30 -20 -47 l-24 -29 -13 25 c-12
21 -12 23 2 11 13 -10 17 -10 22 4 3 9 3 20 0 25 -3 6 0 16 6 24 10 12 9 15
-4 15 -9 0 -16 -4 -16 -10 0 -5 -7 -10 -16 -10 -13 0 -14 3 -4 15 7 8 10 21 7
28 -3 7 4 24 14 38 10 13 19 20 19 14 0 -5 5 -3 10 5 7 12 9 11 10 -5 1 -45 5
-63 12 -59 4 3 8 18 8 34 0 16 7 30 16 34 8 3 12 10 9 16 -4 6 -11 8 -16 5 -5
-3 -6 1 -2 10 4 12 8 13 13 5 4 -6 13 -12 21 -13 8 -2 19 -6 25 -10 11 -6 11
4 4 53 -1 9 -8 2 -15 -15 -8 -16 -14 -25 -15 -18 0 6 -3 20 -6 30 -5 15 -4 15
5 3 9 -13 11 -13 11 3 0 23 17 22 30 -3 12 -23 24 -19 40 11 8 15 8 19 -2 17
-9 -2 -13 9 -12 36 2 36 0 38 -12 21 -8 -10 -16 -16 -20 -13 -9 9 16 49 26 43
6 -3 7 0 5 7 -3 8 9 29 27 48 18 18 26 30 18 25 -12 -7 -13 -6 -2 6 7 8 18 14
25 14 7 0 11 8 11 18 -1 9 3 14 9 10 6 -4 8 0 5 9 -4 8 0 15 7 15 11 0 11 -5
3 -20 -8 -16 -7 -23 6 -32 8 -7 13 -14 10 -17 -3 -4 -1 -9 4 -12 5 -3 12 3 15
14 4 15 0 20 -15 20 -10 0 -17 4 -14 9 3 4 16 7 28 4 28 -4 47 7 53 33 2 10 8
33 14 51 8 28 7 33 -10 38 -23 8 -24 18 -2 36 15 13 16 12 11 -9 -4 -13 -2
-20 4 -16 5 3 7 16 4 27 -3 14 2 30 16 44 12 13 18 23 14 23 -5 0 -3 7 4 15 7
8 17 12 22 9 5 -3 8 0 6 7 -2 12 59 109 69 109 2 0 1 -5 -3 -12 -4 -7 -3 -8 5
-4 6 4 9 12 6 17 -7 10 32 66 84 122 19 20 31 37 27 37 -5 0 -3 7 4 15 7 8 17
12 22 9 5 -3 2 -14 -7 -24z m-3180 -115 c0 -25 -4 -31 -27 -33 -19 -2 -28 2
-33 18 -8 27 12 52 39 48 16 -2 21 -10 21 -33z m2641 9 c8 -29 -9 -46 -41 -42
-40 6 -31 68 9 68 19 0 27 -7 32 -26z m-676 2 c0 -2 -17 -15 -39 -29 l-38 -26
0 25 c0 13 3 24 8 24 5 0 9 -5 9 -10 0 -6 12 -4 28 4 30 17 32 18 32 12z
m1440 -36 c13 -24 -15 -62 -43 -58 -16 2 -23 11 -25 33 -6 49 45 69 68 25z
m-4155 8 c7 -18 -9 -71 -22 -75 -5 -2 -20 5 -33 15 -18 14 -22 25 -16 45 5 22
12 27 37 27 16 0 32 -6 34 -12z m75 -40 c0 -29 3 -70 6 -90 6 -35 9 -38 39
-38 27 0 38 -8 74 -57 49 -66 38 -84 -18 -29 -32 31 -43 36 -84 36 l-47 0 0
115 c0 96 3 115 15 115 11 0 15 -13 15 -52z m3970 -63 l0 -115 -53 0 c-48 0
-56 -3 -75 -30 -20 -26 -52 -41 -52 -24 0 4 16 28 36 55 31 42 41 49 70 49
l34 0 0 83 c0 85 3 97 27 97 10 0 13 -26 13 -115z m-5291 45 c40 -21 31 -80
-12 -80 -44 0 -62 43 -31 74 18 19 20 19 43 6z m6605 4 c44 -17 38 -84 -7 -84
-29 0 -47 18 -47 45 0 21 17 45 31 45 4 0 15 -3 23 -6z m-5226 -399 c80 -88
96 -115 68 -115 -23 0 -186 178 -179 195 9 26 25 14 111 -80z m3930 69 c4 -27
-160 -189 -183 -180 -15 5 -14 9 5 33 45 58 155 170 165 168 6 -1 11 -10 13
-21z m-3723 -116 c45 -51 55 -68 51 -90 -3 -14 -1 -41 4 -59 12 -42 4 -69 -20
-69 -25 0 -31 22 -24 83 6 51 5 53 -45 115 -46 57 -56 82 -31 82 5 0 34 -28
65 -62z m3441 -24 l-55 -69 6 -57 c6 -57 5 -58 -19 -58 -24 0 -25 1 -23 72 3
67 5 74 45 125 42 54 77 78 93 63 5 -4 -16 -39 -47 -76z m-336 -98 c0 -6 -7
-1 -15 10 -8 10 -14 26 -14 34 0 16 28 -28 29 -44z m-1989 -47 c32 -52 38 -54
92 -34 17 7 162 -208 152 -225 -7 -11 -66 54 -116 126 -30 44 -32 45 -69 39
-38 -6 -39 -6 -79 54 -49 72 -50 79 -13 90 1 1 16 -22 33 -50z m1229 27 c0 -6
-18 -36 -39 -66 -36 -52 -41 -55 -77 -53 -38 3 -41 0 -94 -71 -58 -77 -106
-123 -93 -89 4 10 36 62 71 116 l64 98 40 -3 c25 -1 43 3 49 13 5 7 19 28 30
46 19 31 49 36 49 9z m-2430 -16 c7 -16 64 -87 126 -157 106 -119 125 -148 96
-148 -12 0 -243 242 -269 283 -12 18 -13 25 -3 37 19 23 36 18 50 -15z m3630
11 c9 -17 -4 -36 -94 -133 -156 -170 -184 -195 -192 -174 -7 18 -2 24 132 166
39 41 81 94 93 118 23 45 44 53 61 23z m-230 -24 c0 -11 -76 -105 -131 -162
-18 -18 -19 -18 -19 -2 0 11 4 15 12 11 7 -5 9 -2 5 9 -4 12 -2 14 10 10 13
-5 15 -2 10 11 -4 9 -3 15 2 11 5 -3 13 5 17 17 8 27 72 108 85 108 5 0 9 -6
9 -13z m-3159 -42 c53 -55 64 -74 44 -71 -23 3 -56 38 -50 53 2 8 1 12 -4 9
-4 -3 -21 8 -36 24 -21 22 -25 30 -13 30 9 0 36 -20 59 -45z m275 -42 c-10
-10 -19 5 -10 18 6 11 8 11 12 0 2 -7 1 -15 -2 -18z m-1872 -22 c30 -33 -7
-79 -46 -59 -31 16 -17 78 17 78 7 0 20 -9 29 -19z m6340 6 c27 -20 18 -61
-15 -65 -36 -4 -55 21 -41 53 13 28 29 31 56 12z m-4672 -35 c3 8 6 7 10 -4 8
-20 -17 -18 -35 2 -10 12 -9 12 5 2 13 -10 17 -10 20 0z m2718 -84 c0 -18 -17
-6 -34 25 l-19 32 26 -24 c15 -14 27 -28 27 -33z m-2370 17 c11 -13 10 -14 -4
-9 -9 3 -16 10 -16 15 0 13 6 11 20 -6z m-69 -58 c-11 -11 -16 1 -12 30 1 8
-5 10 -16 6 -15 -6 -16 -5 -3 9 14 15 16 14 28 -9 10 -18 11 -28 3 -36z m2355
35 c-17 -16 -18 -16 -5 5 7 12 15 20 18 17 3 -2 -3 -12 -13 -22z m-2313 0 c4
10 7 10 15 -1 5 -7 15 -10 21 -7 7 5 10 2 9 -6 -2 -7 3 -12 10 -10 8 1 11 -2
7 -8 -3 -5 -1 -19 5 -31 8 -15 9 -24 1 -32 -7 -7 -12 -5 -17 6 -3 9 -11 14
-17 10 -6 -3 -7 -1 -3 6 4 6 12 8 18 5 8 -5 9 -1 5 10 -4 10 -7 20 -7 22 0 3
-5 2 -10 -1 -6 -3 -13 1 -16 9 -8 21 -24 20 -24 -1 0 -15 -2 -14 -15 3 -18 24
-19 40 -1 25 11 -9 15 -9 19 1z m2370 -38 c-23 -35 -24 -33 -14 40 0 5 8 3 16
-4 12 -10 12 -15 -2 -36z m-88 26 c4 -6 1 -9 -7 -8 -7 2 -12 -3 -10 -10 1 -8
-2 -11 -8 -7 -8 5 -7 11 1 21 14 17 16 17 24 4z m-24 -47 c13 -16 12 -17 -3
-4 -10 7 -18 15 -18 17 0 8 8 3 21 -13z m-2271 -8 c7 -9 8 -15 2 -15 -5 0 -12
7 -16 15 -3 8 -4 15 -2 15 2 0 9 -7 16 -15z m-2108 -33 c73 -66 4 -175 -87
-138 -60 26 -64 119 -6 151 38 21 57 18 93 -13z m4378 6 c0 -5 -6 -8 -14 -5
-8 3 -16 1 -19 -6 -2 -6 -6 -3 -10 7 -4 9 -3 15 2 11 5 -3 12 -1 16 5 7 12 25
4 25 -12z m73 7 c-3 -9 -8 -14 -10 -11 -3 3 -2 9 2 15 9 16 15 13 8 -4z m2208
-14 c16 -16 29 -39 29 -51 0 -60 -63 -110 -114 -90 -32 12 -56 48 -56 83 0 37
49 87 85 87 16 0 38 -12 56 -29z m-4694 -4 c2 -3 0 -21 -6 -41 -9 -35 -8 -37
22 -53 18 -8 35 -20 38 -26 4 -6 13 -1 20 12 8 11 18 21 24 21 13 0 90 -129
81 -137 -3 -3 -6 -1 -6 5 0 7 -9 12 -20 12 -11 0 -20 -4 -20 -8 0 -5 9 -27 20
-50 11 -22 20 -45 20 -49 0 -5 17 -7 39 -5 38 4 38 3 50 -42 6 -24 11 -47 11
-50 0 -3 -16 -8 -36 -12 -25 -5 -38 -14 -45 -31 -16 -42 -10 -63 21 -81 16 -9
30 -20 30 -25 0 -4 -15 -24 -34 -45 l-34 -37 -25 23 c-24 22 -28 23 -62 11
-52 -19 -60 -32 -47 -76 13 -42 9 -48 -46 -58 -41 -8 -43 -5 -51 41 -6 35 -8
37 -48 41 -37 3 -43 1 -55 -24 -17 -36 -64 -43 -98 -15 l-24 19 22 27 c19 25
20 30 7 50 -9 13 -26 29 -40 36 -21 11 -28 10 -50 -4 -31 -20 -41 -15 -74 44
l-23 40 31 11 c28 10 31 15 31 54 0 63 -7 75 -46 75 -37 0 -41 12 -28 80 6 30
9 31 41 25 19 -3 40 -8 47 -11 7 -3 21 15 34 41 l22 45 -25 16 c-14 9 -25 22
-25 28 0 7 23 29 51 51 55 42 56 42 88 -14 7 -11 16 -11 55 4 45 17 46 19 46
60 l0 42 56 -8 c31 -4 58 -10 61 -12z m2449 3 c5 1 10 -4 12 -10 3 -9 -1 -9
-17 -1 -11 7 -21 17 -21 24 0 8 3 8 9 -1 4 -8 12 -13 17 -12z m-2271 0 c-3 -5
-10 -10 -16 -10 -5 0 -9 5 -9 10 0 6 7 10 16 10 8 0 12 -4 9 -10z m2565 -30
c0 -35 4 -41 37 -56 l36 -18 28 33 27 33 40 -28 c45 -32 71 -66 55 -71 -6 -2
-18 -9 -28 -17 -16 -12 -16 -15 5 -55 20 -40 24 -43 53 -38 18 3 40 8 49 12
13 5 18 0 22 -27 14 -84 14 -83 -25 -86 -41 -3 -49 -17 -49 -83 0 -31 4 -38
30 -49 17 -7 30 -15 30 -18 0 -3 -11 -25 -25 -49 -26 -43 -26 -43 -55 -28 -39
20 -50 19 -82 -10 -32 -28 -33 -35 -13 -75 15 -29 15 -30 -17 -50 -42 -26 -58
-22 -77 18 -15 32 -18 33 -61 26 -59 -8 -60 -9 -60 -51 l0 -36 -40 6 c-61 8
-72 21 -52 59 15 31 15 32 -18 60 -38 31 -56 34 -84 13 -30 -22 -43 -18 -69
20 l-24 36 28 29 c47 47 34 94 -29 105 l-38 6 15 49 c17 55 29 64 66 50 21 -8
27 -6 31 8 3 9 13 34 21 55 18 41 12 57 -12 37 -30 -25 -25 -2 11 59 43 73 50
78 73 57 16 -15 21 -14 59 4 l42 21 -15 29 c-26 51 -19 57 68 59 l47 1 0 -40z
m-2552 -15 c-3 -3 -9 2 -12 12 -6 14 -5 15 5 6 7 -7 10 -15 7 -18z m2233 -16
c-12 -11 -21 -15 -21 -9 0 6 7 13 15 16 8 4 15 14 16 23 0 11 2 12 6 3 3 -8
-4 -22 -16 -33z m-2107 -5 c5 -14 4 -15 -9 -4 -17 14 -19 20 -6 20 5 0 12 -7
15 -16z m4013 -40 c3 -9 -4 -25 -16 -37 -17 -17 -25 -19 -39 -11 -42 27 -14
96 30 73 10 -6 22 -17 25 -25z m-5967 11 c14 -17 5 -51 -15 -59 -33 -12 -61
19 -50 55 8 23 47 25 65 4z m4016 -5 c0 -9 -5 -17 -11 -17 -6 0 -11 8 -11 17
0 9 5 17 11 17 6 0 11 -8 11 -17z m-3192 -31 c35 -28 58 -74 58 -118 0 -76
-100 -110 -156 -53 -51 54 -44 135 16 172 41 25 49 25 82 -1z m4340 -8 c10 -9
25 -31 33 -49 39 -94 -77 -186 -151 -119 -48 42 -38 130 19 175 30 24 66 21
99 -7z m-1186 -45 c-13 -19 -26 -32 -30 -30 -5 3 -8 2 -9 -3 -2 -27 -9 -47
-18 -56 -8 -8 -11 -8 -11 0 0 7 5 15 10 18 8 5 7 11 0 20 -8 10 -9 19 -1 32 8
14 11 15 11 3 0 -8 7 -3 16 13 8 15 19 25 24 22 5 -3 11 -1 15 5 3 5 8 10 11
10 2 0 -6 -15 -18 -34z m1378 7 c-10 -10 -19 5 -10 18 6 11 8 11 12 0 2 -7 1
-15 -2 -18z m-3032 -9 c5 -14 4 -15 -9 -4 -17 14 -19 20 -6 20 5 0 12 -7 15
-16z m-376 -29 c-3 -3 -9 2 -12 12 -6 14 -5 15 5 6 7 -7 10 -15 7 -18z m26
-31 c3 -8 2 -12 -4 -9 -6 3 -10 10 -10 16 0 14 7 11 14 -7z m-2090 -156 c20
-28 4 -58 -30 -58 -16 0 -27 7 -33 23 -19 49 33 78 63 35z m6190 0 c8 -13 8
-23 0 -35 -16 -26 -51 -28 -64 -4 -25 47 36 83 64 39z m-202 -307 c92 -89 121
-112 135 -106 10 5 32 10 50 13 57 8 82 -67 37 -112 -29 -30 -104 -9 -104 29
0 11 -19 31 -118 120 l-43 38 -58 -57 c-51 -51 -59 -55 -71 -41 -12 14 -6 23
38 68 29 29 52 57 52 62 0 6 -53 60 -117 122 -104 99 -116 113 -103 128 12 15
22 8 99 -67 47 -46 139 -134 203 -197z m-5544 250 c2 -7 -48 -64 -113 -126
l-117 -114 53 -56 c47 -50 51 -57 37 -71 -14 -14 -20 -10 -63 40 -26 31 -51
56 -55 56 -11 0 -156 -143 -174 -172 -13 -22 -24 -28 -51 -28 -59 0 -87 68
-44 111 21 21 50 22 90 5 11 -5 71 46 215 183 109 104 203 189 208 187 6 -1
12 -8 14 -15z m-698 -46 c0 -31 -32 -57 -66 -53 -34 4 -61 45 -50 74 8 18 8
18 17 -3 11 -29 29 -29 54 1 23 27 45 18 45 -19z m6677 39 c-3 -3 3 -16 14
-27 17 -19 22 -20 40 -9 27 17 35 8 21 -23 -13 -28 -57 -43 -81 -28 -27 17
-27 93 0 93 7 0 10 -3 6 -6z m-4377 -204 c-6 -11 -13 -20 -16 -20 -2 0 0 9 6
20 6 11 13 20 16 20 2 0 0 -9 -6 -20z m-1421 -14 c9 -10 -41 -64 -244 -265
-141 -138 -262 -251 -270 -251 -8 0 -15 6 -15 13 0 11 498 515 511 516 4 1 12
-5 18 -13z m5150 -237 c225 -220 282 -287 237 -277 -12 2 -421 400 -495 481
-20 23 -22 53 -1 45 4 -2 120 -114 259 -249z m-1577 154 c46 -45 57 -63 41
-63 -5 0 -19 16 -32 35 -13 19 -26 33 -30 31 -3 -2 -17 7 -31 20 -16 16 -20
24 -10 24 8 0 36 -21 62 -47z m-1917 -14 l17 -51 48 7 c44 6 50 4 61 -17 7
-13 30 -47 52 -76 l40 -53 -24 -17 c-28 -20 -34 -19 -35 6 -2 30 -24 62 -50
72 -34 13 -160 -12 -149 -29 2 -4 -6 -7 -18 -7 -12 1 -21 -4 -20 -10 1 -6 -12
-24 -30 -40 l-32 -29 30 34 c17 18 23 32 15 29 -27 -8 -79 -88 -96 -145 -30
-103 -2 -187 95 -283 57 -57 102 -79 194 -95 36 -6 38 -5 32 14 -4 14 0 30 13
45 l19 25 41 -57 42 -56 0 -108 0 -108 -65 0 -65 0 2 43 c1 42 1 42 5 6 4 -36
5 -37 44 -36 l39 1 -2 70 c-1 63 -2 66 -7 26 -5 -37 -7 -41 -13 -22 -4 13 -16
26 -28 29 -16 4 -18 8 -8 14 10 7 10 9 -3 9 -9 0 -19 -3 -23 -7 -4 -4 -30 -8
-58 -8 -50 0 -52 -1 -60 -33 -5 -18 -15 -35 -23 -38 -13 -5 -85 31 -85 42 0 3
7 19 16 37 l17 31 -43 38 c-49 44 -58 45 -88 18 -12 -11 -25 -20 -29 -20 -4 1
-20 20 -35 43 l-27 42 29 18 c25 16 27 21 19 49 -14 50 -23 54 -79 36 -46 -15
-50 -15 -50 0 0 10 -3 34 -6 54 l-6 37 43 3 44 3 3 52 3 52 -43 3 -43 3 3 45
c5 61 13 67 62 45 46 -21 52 -17 70 38 11 34 10 39 -11 56 l-22 18 28 36 c15
21 30 37 33 37 3 0 17 -11 32 -25 l25 -24 42 33 42 33 -20 33 c-11 18 -19 33
-17 35 7 6 84 44 90 45 3 0 14 -23 23 -51z m1660 21 c25 -9 25 -9 8 -46 l-18
-36 39 -35 38 -35 27 26 c15 14 31 26 37 26 5 -1 21 -17 36 -37 l28 -36 -29
-18 -29 -18 18 -37 c11 -20 21 -41 23 -47 2 -7 19 -4 46 7 24 9 46 14 49 12 3
-3 7 -28 10 -56 l5 -50 -42 0 -41 0 0 -54 0 -53 41 -6 c22 -3 43 -7 45 -10 3
-2 2 -23 -2 -47 -8 -46 1 -44 -91 -23 -16 4 -25 -2 -37 -25 -22 -42 -20 -56 9
-72 32 -17 31 -27 -4 -69 l-28 -34 -30 23 -31 22 -46 -31 c-25 -18 -46 -36
-46 -42 0 -5 9 -27 20 -48 l19 -39 -42 -18 c-23 -10 -45 -20 -48 -22 -4 -1
-14 16 -23 38 -19 48 -29 53 -81 42 -38 -8 -40 -10 -39 -43 1 -19 0 -28 -3
-21 -7 19 -19 14 -20 -10 -1 -11 -8 -25 -15 -30 -9 -7 -6 -8 10 -5 12 3 22 1
22 -4 0 -5 -16 -9 -35 -9 -24 0 -35 5 -35 15 0 8 7 15 15 15 8 0 15 4 15 10 0
5 -6 9 -12 7 -8 -1 -15 14 -19 38 l-7 40 0 -45 c1 -81 -1 -90 -20 -90 -17 0
-20 12 -25 107 l-7 106 42 63 c37 54 45 61 57 49 8 -8 14 -28 14 -44 0 -30 1
-31 41 -24 159 24 268 130 298 290 10 55 9 62 -16 115 -32 69 -74 111 -143
144 -60 30 -133 43 -133 25 0 -7 -5 -9 -10 -6 -12 7 -40 -18 -40 -37 -1 -7 -6
-23 -13 -35 -12 -22 -12 -22 -37 -2 -15 11 -21 22 -15 26 16 12 85 121 85 134
0 8 16 9 54 5 51 -7 54 -6 60 18 17 67 24 76 51 66 14 -6 36 -14 50 -20z
m-2287 -136 l129 -135 -5 -142 c-2 -78 -6 -144 -9 -147 -14 -15 -23 41 -23
147 l0 122 -125 133 c-69 73 -125 139 -125 146 0 32 38 2 158 -124z m2976 127
c6 -10 -39 -63 -171 -204 l-83 -88 0 -130 c0 -106 -3 -129 -14 -129 -12 0 -16
26 -18 142 l-3 143 134 137 c73 76 137 138 142 138 4 0 10 -4 13 -9z m-3877
-569 c-108 -109 -198 -205 -199 -213 0 -8 -2 -18 -3 -24 -2 -5 -3 -22 -4 -37
-1 -34 -55 -88 -86 -88 -84 0 -136 98 -85 162 29 38 72 52 113 39 l34 -12 199
201 c177 179 199 199 213 185 14 -13 -5 -36 -182 -213z m1588 208 c5 -5 17
-21 27 -37 14 -25 15 -33 2 -68 -21 -62 -60 -80 -118 -54 -67 31 -61 141 9
170 21 9 63 3 80 -11z m1526 10 c23 0 59 -54 59 -87 0 -46 -46 -93 -90 -93
-70 0 -115 92 -72 147 19 25 60 44 80 37 8 -2 18 -4 23 -4z m819 -32 c0 -10
-20 -11 -21 0 0 4 -2 16 -4 27 -4 20 -4 20 11 1 8 -11 14 -23 14 -28z m720
-158 l195 -201 31 12 c66 26 134 -24 134 -98 0 -73 -66 -120 -131 -93 -43 18
-61 51 -58 102 3 41 -1 47 -45 88 -118 109 -348 361 -342 375 3 8 9 15 13 15
4 0 96 -90 203 -200z m-2902 151 c19 -11 11 -45 -11 -49 -19 -4 -32 20 -23 43
6 17 15 19 34 6z m1151 -5 c15 -17 -3 -60 -21 -54 -23 8 -32 36 -19 52 17 20
25 20 40 2z m-2392 -126 c59 -47 128 -105 155 -129 29 -27 53 -41 63 -37 8 3
15 2 15 -2 0 -18 71 -54 99 -50 17 2 28 1 25 -4 -3 -4 5 -12 18 -17 13 -5 33
-21 45 -35 13 -14 28 -26 34 -26 6 0 17 -7 25 -15 12 -12 12 -15 2 -15 -8 0
-6 -5 5 -11 9 -6 14 -15 11 -21 -4 -7 -2 -8 5 -4 7 5 28 -7 51 -28 22 -20 38
-36 36 -36 -10 0 -240 115 -300 150 -145 85 -316 206 -404 285 l-53 48 28 29
c18 19 29 25 31 16 2 -7 51 -51 109 -98z m1499 59 c12 -23 14 -113 13 -536 -1
-279 -4 -521 -8 -537 -6 -27 -11 -22 -136 130 -166 202 -162 194 -145 233 7
17 15 31 19 31 4 0 39 -39 79 -87 39 -49 86 -104 103 -123 l31 -35 -6 145 c-3
80 -3 299 1 487 5 293 8 341 20 331 8 -6 21 -24 29 -39z m654 -422 c0 -254 4
-467 8 -474 5 -8 39 27 97 99 50 61 95 113 100 115 6 2 17 -12 24 -32 14 -41
20 -32 -169 -258 l-115 -137 -3 551 -2 551 22 28 c13 15 26 25 31 23 4 -2 7
-212 7 -466z m1609 430 c20 -25 -133 -155 -335 -284 -114 -72 -401 -219 -410
-210 -3 3 8 13 25 21 17 9 41 34 53 56 13 22 31 43 40 46 10 3 31 19 48 35 17
17 30 25 30 17 1 -9 5 -7 14 5 8 10 17 18 20 17 23 -5 70 16 88 41 15 20 28
27 40 24 20 -7 51 8 88 41 14 13 68 61 120 106 52 46 102 91 112 101 19 18 42
13 67 -16z m873 -131 c29 -21 38 -58 22 -94 -11 -27 -18 -32 -48 -32 -25 0
-40 7 -55 26 -27 35 -26 59 4 89 27 28 51 31 77 11z m-5978 -12 c19 -19 20
-26 4 -42 -18 -18 -46 -14 -58 7 -7 15 -6 23 6 35 19 20 29 20 48 0z m390 0
c22 -22 20 -70 -4 -94 -30 -30 -84 -27 -98 5 -17 37 -15 62 8 85 24 24 72 26
94 4z m5944 4 c26 -26 8 -58 -33 -58 -18 0 -27 28 -15 51 12 22 30 25 48 7z
m-5299 -154 c-74 -74 -137 -134 -142 -134 -4 0 -10 7 -14 16 -4 10 34 55 122
144 112 113 131 128 148 118 18 -9 7 -23 -114 -144z m4249 24 c118 -119 130
-134 116 -148 -14 -13 -29 -1 -145 119 -104 107 -127 136 -118 147 6 8 12 14
13 14 2 0 62 -60 134 -132z m-3898 -48 c8 -14 8 -26 0 -40 -12 -23 -15 -24
-41 -10 -18 10 -26 50 -12 63 13 14 43 6 53 -13z m3570 5 c6 -8 10 -22 8 -32
-5 -25 -61 -25 -66 0 -4 21 14 47 33 47 7 0 18 -7 25 -15z m-4846 -161 c36
-35 9 -92 -39 -80 -33 8 -44 50 -20 76 22 24 38 25 59 4z m6124 0 c24 -17 29
-53 10 -72 -7 -7 -25 -12 -40 -12 -40 0 -58 39 -34 75 19 29 33 31 64 9z
m-3288 -94 c2 21 3 22 8 5 l5 -20 8 20 c4 11 8 -168 8 -397 1 -230 -1 -418 -4
-418 -2 0 -16 22 -30 50 l-25 49 1 388 c1 336 3 382 14 343 10 -35 14 -39 15
-20z m-1245 20 c8 -27 -12 -52 -39 -48 -21 3 -32 28 -22 54 8 22 54 18 61 -6z
m2949 -3 c9 -15 7 -22 -13 -38 -18 -15 -27 -17 -37 -8 -15 12 -19 51 -7 63 12
12 45 2 57 -17z m-1308 -20 c10 4 14 -3 15 -23 l1 -29 8 25 c4 14 8 -131 9
-322 l1 -346 -29 -61 -28 -60 -7 207 c-3 114 -4 286 -1 382 3 96 6 193 6 215
1 22 3 32 6 23 2 -10 10 -15 19 -11z m-1256 -37 c0 12 2 13 9 1 5 -7 20 -13
35 -13 15 0 26 -6 26 -14 0 -8 4 -14 10 -14 5 0 7 -13 4 -30 -8 -39 10 -60 52
-60 23 0 37 6 44 20 13 24 3 67 -17 79 -10 5 -12 11 -5 15 6 3 18 -1 26 -10
11 -10 16 -11 16 -3 0 24 40 -24 45 -55 10 -53 -7 -82 -58 -94 -46 -12 -91 -4
-160 28 -28 14 -47 60 -62 155 l-6 40 20 -30 c12 -17 21 -24 21 -15z m2149
-30 c-16 -93 -18 -99 -49 -115 -16 -8 -54 -21 -84 -29 -102 -27 -153 7 -140
92 6 40 41 79 57 63 5 -5 17 -7 26 -4 11 4 9 -1 -6 -16 -25 -24 -30 -60 -11
-79 20 -20 65 -14 82 10 23 33 20 55 -10 71 -22 12 -24 15 -10 20 10 4 15 3
11 -3 -3 -6 1 -10 9 -10 9 0 16 4 16 10 0 16 49 23 65 10 13 -11 14 -10 10 3
-4 8 -2 18 4 22 6 3 11 0 11 -7 0 -8 5 -6 11 5 16 28 18 17 8 -43z m-1170 -37
c1 16 3 17 22 4 20 -14 20 -25 26 -423 3 -255 9 -414 16 -422 8 -10 14 -9 28
4 18 16 19 40 19 425 0 402 0 407 20 402 11 -3 20 -10 20 -15 0 -5 4 -7 9 -4
5 3 12 -1 15 -10 3 -9 6 -201 6 -427 l0 -411 -46 -275 c-25 -150 -49 -283 -53
-294 -8 -22 -10 -15 -67 343 -19 118 -37 267 -41 330 -7 147 7 801 18 775 7
-18 8 -18 8 -2z m2252 -153 c32 -18 19 -80 -17 -80 -17 0 -44 28 -44 45 0 13
26 45 36 45 3 0 14 -5 25 -10z m-4291 -19 c12 -23 5 -47 -17 -55 -38 -15 -71
22 -51 58 12 22 55 20 68 -3z m270 -181 c15 -28 -4 -60 -35 -60 -18 0 -26 7
-31 25 -12 48 44 77 66 35z m3758 8 c17 -17 15 -55 -4 -62 -27 -10 -43 -7 -52
12 -22 40 24 82 56 50z m-1234 -58 c32 -12 58 -62 50 -95 -8 -32 -49 -65 -81
-65 -13 0 -35 11 -48 25 -35 34 -33 78 4 116 32 32 38 33 75 19z m-1277 -15
c43 -30 37 -99 -11 -131 -48 -31 -116 8 -116 68 0 64 73 101 127 63z m-1039
-57 c30 -30 -2 -93 -36 -71 -21 13 -27 50 -12 69 15 17 32 18 48 2z m3326 -4
c9 -8 16 -22 16 -29 0 -15 -27 -45 -40 -45 -12 0 -40 29 -40 41 0 20 21 49 35
49 7 0 21 -7 29 -16z m-3090 -110 c21 -21 20 -37 -5 -60 -24 -22 -52 -10 -57
25 -7 43 32 65 62 35z m2866 -14 c14 -26 -3 -60 -30 -60 -27 0 -52 38 -39 62
13 24 55 23 69 -2z m-2610 -89 c5 -11 7 -27 4 -35 -7 -18 -47 -31 -63 -21 -12
7 -15 58 -4 68 13 14 53 6 63 -12z m2354 3 c19 -18 19 -20 6 -45 -22 -41 -78
-11 -66 36 7 29 36 33 60 9z m-2110 -86 c14 -23 -3 -52 -32 -56 -27 -4 -43 25
-31 56 10 27 46 27 63 0z m1866 7 c7 -8 10 -25 6 -40 -9 -35 -52 -35 -68 0
-19 43 32 76 62 40z m-1625 -59 c18 -27 11 -53 -16 -61 -39 -13 -67 43 -37 73
18 18 36 14 53 -12z m1379 8 c9 -8 16 -22 16 -29 0 -17 -27 -45 -44 -45 -17 0
-36 21 -36 41 0 18 25 49 40 49 5 0 16 -7 24 -16z"/>
<path d="M4492 8803 c5 -25 28 -28 28 -4 0 12 -6 21 -16 21 -9 0 -14 -7 -12
-17z"/>
<path d="M3892 8158 c-16 -16 -15 -33 3 -48 21 -18 55 -3 55 25 0 32 -35 46
-58 23z"/>
<path d="M5715 8810 c-11 -17 5 -32 21 -19 7 6 11 15 8 20 -7 12 -21 11 -29
-1z"/>
<path d="M6297 8163 c-24 -23 12 -83 39 -65 18 12 25 44 13 58 -12 15 -41 19
-52 7z"/>
<path d="M4520 9109 c0 -24 23 -21 28 4 2 10 -3 17 -12 17 -10 0 -16 -9 -16
-21z"/>
<path d="M5070 7041 c0 -7 -4 -10 -8 -7 -5 3 -9 -2 -9 -10 0 -13 2 -13 16 0 8
9 12 19 8 22 -4 4 -7 2 -7 -5z"/>
<path d="M5700 9110 c0 -13 5 -20 13 -17 6 2 12 10 12 17 0 7 -6 15 -12 18 -8
2 -13 -5 -13 -18z"/>
<path d="M2820 8230 c-31 -31 -36 -69 -14 -109 20 -38 51 -49 100 -37 31 8 59
64 50 100 -15 61 -94 88 -136 46z m80 -49 c14 -27 2 -51 -26 -51 -17 0 -25 7
-30 24 -3 14 -3 30 1 35 10 18 44 12 55 -8z"/>
<path d="M6897 7599 c12 -12 24 -21 27 -18 2 2 -8 13 -22 23 l-27 19 22 -24z"/>
<path d="M6965 7089 c-4 -6 -5 -12 -2 -15 2 -3 7 2 10 11 7 17 1 20 -8 4z"/>
<path d="M7305 8225 c-52 -51 -16 -145 54 -145 46 0 85 39 85 85 0 74 -88 112
-139 60z m83 -57 c-2 -23 -9 -34 -22 -36 -26 -5 -40 12 -32 42 5 19 13 26 32
26 22 0 25 -4 22 -32z"/>
<path d="M7274 7909 c-4 -8 -3 -9 4 -5 7 4 12 1 12 -7 0 -8 7 -17 15 -21 13
-4 13 -2 5 14 -14 26 -27 33 -36 19z"/>
<path d="M3019 6978 c-5 -18 -6 -38 -1 -34 7 8 12 36 6 36 -2 0 -4 -1 -5 -2z"/>
<path d="M3164 6840 c0 -13 4 -16 10 -10 7 7 7 13 0 20 -6 6 -10 3 -10 -10z"/>
<path d="M3205 6810 c10 -11 20 -20 23 -20 3 0 -3 9 -13 20 -10 11 -20 20 -23
20 -3 0 3 -9 13 -20z"/>
<path d="M3230 6771 c0 -5 7 -15 17 -22 15 -13 15 -12 4 9 -12 23 -21 28 -21
13z"/>
<path d="M7190 6975 c7 -8 17 -15 22 -15 6 0 5 7 -2 15 -7 8 -17 15 -22 15 -6
0 -5 -7 2 -15z"/>
<path d="M6999 6783 c-7 -10 -9 -15 -5 -11 5 4 16 2 25 -5 14 -10 14 -10 4 4
-7 9 -10 19 -6 22 3 4 4 7 1 7 -3 0 -12 -8 -19 -17z"/>
<path d="M6970 6745 c-14 -8 -20 -14 -14 -15 5 0 19 7 30 15 24 18 16 19 -16
0z"/>
<path d="M7016 6738 c3 -5 10 -6 15 -3 13 9 11 12 -6 12 -8 0 -12 -4 -9 -9z"/>
<path d="M6858 6733 c7 -3 16 -2 19 1 4 3 -2 6 -13 5 -11 0 -14 -3 -6 -6z"/>
<path d="M4523 7347 c-27 -12 -30 -48 -7 -68 14 -11 19 -10 35 10 22 27 23 32
7 53 -10 13 -18 14 -35 5z"/>
<path d="M4363 7054 c-8 -22 10 -49 32 -49 10 0 22 7 28 16 15 24 1 49 -28 49
-15 0 -28 -7 -32 -16z"/>
<path d="M5672 7340 c-15 -25 0 -60 26 -60 29 0 43 34 26 59 -19 26 -36 27
-52 1z m38 -31 c0 -5 -7 -9 -15 -9 -9 0 -15 9 -15 21 0 18 2 19 15 9 8 -7 15
-16 15 -21z"/>
<path d="M5828 7069 c-39 -22 -8 -81 31 -59 25 13 27 33 5 54 -8 9 -16 16 -17
16 -1 0 -10 -5 -19 -11z"/>
<path d="M5838 6953 c6 -2 18 -2 25 0 6 3 1 5 -13 5 -14 0 -19 -2 -12 -5z"/>
<path d="M2601 7036 c-7 -8 -11 -27 -9 -43 6 -50 78 -40 78 11 0 41 -45 62
-69 32z m6 -58 c-3 -8 -6 -5 -6 6 -1 11 2 17 5 13 3 -3 4 -12 1 -19z"/>
<path d="M7572 7038 c-28 -28 -3 -84 34 -76 43 8 44 88 1 88 -13 0 -28 -5 -35
-12z m23 -48 c3 -5 1 -10 -4 -10 -6 0 -11 5 -11 10 0 6 2 10 4 10 3 0 8 -4 11
-10z"/>
<path d="M2221 7016 c-15 -18 -3 -46 19 -46 24 0 33 15 25 40 -7 23 -28 26
-44 6z"/>
<path d="M7972 6998 c4 -28 42 -37 52 -13 9 24 -1 35 -30 35 -21 0 -25 -4 -22
-22z"/>
<path d="M3390 6506 c0 -2 13 -6 29 -8 17 -2 28 -1 25 4 -5 8 -54 12 -54 4z"/>
<path d="M3560 6355 c13 -14 26 -25 28 -25 3 0 -5 11 -18 25 -13 14 -26 25
-28 25 -3 0 5 -11 18 -25z"/>
<path d="M3484 6306 c3 -22 22 -40 30 -28 3 5 -3 17 -13 27 -17 15 -19 15 -17
1z"/>
<path d="M3606 6278 c3 -5 10 -6 15 -3 13 9 11 12 -6 12 -8 0 -12 -4 -9 -9z"/>
<path d="M3605 6249 c-3 -4 2 -6 10 -5 21 3 28 13 10 13 -9 0 -18 -4 -20 -8z"/>
<path d="M3746 6067 c3 -10 9 -15 12 -12 3 3 0 11 -7 18 -10 9 -11 8 -5 -6z"/>
<path d="M6666 6345 c-9 -26 -7 -32 5 -12 6 10 9 21 6 23 -2 3 -7 -2 -11 -11z"/>
<path d="M6763 6345 c-9 -24 1 -27 15 -5 8 13 8 20 2 20 -6 0 -13 -7 -17 -15z"/>
<path d="M6728 6324 c-4 -15 0 -20 16 -22 11 0 16 2 10 6 -6 4 -13 14 -16 22
-3 11 -6 9 -10 -6z"/>
<path d="M6607 6282 c-27 -28 -27 -42 1 -42 12 0 12 3 2 15 -12 14 -7 20 15
15 6 -1 7 2 3 6 -4 4 -3 13 3 21 21 24 3 14 -24 -15z"/>
<path d="M6669 6223 c-13 -16 -12 -17 4 -4 9 7 17 15 17 17 0 8 -8 3 -21 -13z"/>
<path d="M6530 6192 c0 -7 5 -12 11 -12 5 0 8 -4 4 -9 -3 -5 -1 -12 4 -15 13
-8 7 22 -7 36 -9 9 -12 9 -12 0z"/>
<path d="M6473 6128 c-27 -27 -34 -29 -47 -18 -11 8 -16 9 -16 1 0 -6 6 -11
13 -11 8 0 7 -4 -3 -10 -11 -8 -9 -9 10 -6 14 3 31 5 38 5 7 1 10 6 6 12 -4 7
4 20 17 30 13 10 21 20 18 23 -3 3 -19 -9 -36 -26z"/>
<path d="M6579 6158 c-5 -9 -5 -48 -1 -43 6 6 11 45 5 45 -2 0 -4 -1 -4 -2z"/>
<path d="M6385 6120 c-3 -5 -1 -10 4 -10 6 0 11 5 11 10 0 6 -2 10 -4 10 -3 0
-8 -4 -11 -10z"/>
<path d="M6500 6109 c0 -5 5 -7 10 -4 6 3 10 8 10 11 0 2 -4 4 -10 4 -5 0 -10
-5 -10 -11z"/>
<path d="M6345 6069 c-11 -17 1 -21 15 -4 8 9 8 15 2 15 -6 0 -14 -5 -17 -11z"/>
<path d="M6485 6069 c-11 -16 -1 -19 13 -3 7 8 8 14 3 14 -5 0 -13 -5 -16 -11z"/>
<path d="M6490 6031 c0 -10 19 -25 25 -20 1 2 -3 10 -11 17 -8 7 -14 8 -14 3z"/>
<path d="M6750 6119 c0 -5 5 -7 10 -4 6 3 10 8 10 11 0 2 -4 4 -10 4 -5 0 -10
-5 -10 -11z"/>
<path d="M7153 5498 c-8 -19 -10 -46 -4 -77 1 -3 6 0 13 7 8 8 8 15 -1 26 -7
8 -8 17 -3 20 12 7 23 46 13 46 -4 0 -12 -10 -18 -22z"/>
<path d="M7105 5439 c-4 -6 -4 -13 -1 -16 3 -4 6 -1 6 6 0 7 9 3 20 -10 l20
-24 -11 28 c-13 29 -24 34 -34 16z"/>
<path d="M2646 6067 c3 -10 9 -15 12 -12 3 3 0 11 -7 18 -10 9 -11 8 -5 -6z"/>
<path d="M2730 5942 c1 -12 40 -55 46 -49 3 2 -6 16 -20 30 -14 15 -26 23 -26
19z"/>
<path d="M2869 5763 c-13 -16 -12 -17 4 -4 9 7 17 15 17 17 0 8 -8 3 -21 -13z"/>
<path d="M2935 5700 c-3 -5 -1 -10 4 -10 6 0 11 5 11 10 0 6 -2 10 -4 10 -3 0
-8 -4 -11 -10z"/>
<path d="M3160 5933 c0 -5 37 -55 81 -113 44 -58 124 -162 176 -232 53 -71 99
-128 103 -128 4 0 15 9 26 21 23 25 32 11 -160 261 -149 195 -152 198 -188
198 -21 0 -38 -3 -38 -7z"/>
<path d="M6839 5725 c-150 -200 -161 -217 -151 -240 7 -14 18 -25 25 -25 11 0
186 227 330 427 l38 53 -40 0 -41 0 -161 -215z"/>
<path d="M1840 5701 c0 -12 6 -21 16 -21 9 0 14 7 12 17 -5 25 -28 28 -28 4z"/>
<path d="M8367 5695 c-7 -16 8 -29 23 -20 15 9 12 35 -4 35 -8 0 -16 -7 -19
-15z"/>
<path d="M4081 5564 c-31 -39 -28 -89 8 -125 33 -33 50 -35 91 -14 36 19 50
43 50 88 0 47 -34 77 -87 77 -33 0 -46 -6 -62 -26z m87 -26 c18 -18 14 -56 -7
-68 -39 -20 -68 11 -51 55 10 27 38 33 58 13z"/>
<path d="M6042 5583 c-18 -7 -42 -57 -42 -87 0 -41 41 -80 85 -80 30 0 44 7
66 32 16 18 29 41 29 53 0 28 -26 75 -45 83 -19 7 -74 7 -93 -1z m70 -50 c25
-23 22 -51 -7 -65 -19 -8 -28 -8 -40 2 -20 17 -19 57 3 69 23 14 23 14 44 -6z"/>
<path d="M3145 5407 c10 -15 20 -25 23 -22 3 3 -5 16 -17 28 l-23 22 17 -28z"/>
<path d="M3250 5190 c-8 -5 -12 -12 -9 -15 4 -3 12 1 19 10 14 17 11 19 -10 5z"/>
<path d="M3335 5060 c3 -5 8 -10 11 -10 2 0 4 5 4 10 0 6 -5 10 -11 10 -5 0
-7 -4 -4 -10z"/>
<path d="M3560 4741 c0 -6 4 -13 10 -16 6 -3 7 1 4 9 -7 18 -14 21 -14 7z"/>
<path d="M3686 4625 c4 -8 0 -23 -7 -33 -13 -15 -12 -16 4 -3 19 15 22 36 7
46 -6 3 -7 -1 -4 -10z"/>
<path d="M3703 4581 c-12 -10 -18 -23 -14 -29 5 -8 15 -2 29 18 25 33 18 39
-15 11z"/>
<path d="M3770 4531 c0 -7 -5 -9 -12 -5 -8 5 -9 2 -5 -11 4 -9 2 -24 -4 -31
-8 -10 -5 -19 15 -37 14 -13 26 -29 26 -35 0 -6 4 -13 8 -16 12 -7 7 43 -6 56
-7 7 -12 18 -12 26 0 7 -4 10 -10 7 -6 -4 -6 3 0 21 6 15 8 29 5 32 -3 3 -5 0
-5 -7z"/>
<path d="M3790 4513 c-10 -12 -11 -18 -2 -21 7 -2 12 -10 12 -18 0 -8 5 -14
10 -14 13 0 13 17 0 25 -6 4 -8 15 -5 26 8 23 5 23 -15 2z"/>
<path d="M3905 4350 c-3 -5 -2 -10 4 -10 5 0 13 5 16 10 3 6 2 10 -4 10 -5 0
-13 -4 -16 -10z"/>
<path d="M1795 5414 c-9 -9 -14 -23 -11 -31 3 -8 6 -17 6 -19 0 -2 9 -4 20 -4
25 0 41 30 29 53 -12 21 -23 22 -44 1z"/>
<path d="M8403 5423 c-19 -7 -16 -41 5 -52 27 -14 46 2 38 33 -6 25 -17 30
-43 19z"/>
<path d="M7055 5362 c4 -9 10 -25 12 -34 7 -24 14 -22 42 13 14 18 18 29 10
27 -8 -2 -17 -7 -21 -13 -5 -6 -12 -5 -20 4 -11 12 -10 13 2 6 8 -5 11 -4 7 0
-4 5 -15 10 -23 11 -11 2 -13 -3 -9 -14z"/>
<path d="M7046 5274 c-9 -24 -2 -26 12 -4 7 11 8 20 3 20 -5 0 -12 -7 -15 -16z"/>
<path d="M3150 4305 c-18 -21 -3 -55 25 -55 29 0 39 14 31 46 -7 27 -37 32
-56 9z"/>
<path d="M7034 4306 c-10 -26 1 -51 23 -54 28 -4 50 32 32 54 -15 18 -48 18
-55 0z"/>
<path d="M6875 5100 c-4 -6 -10 -8 -14 -6 -4 3 -7 -8 -6 -24 1 -17 -2 -30 -7
-30 -4 0 -8 8 -9 18 0 14 -2 14 -9 -3 -5 -11 -9 -15 -10 -10 -1 6 -5 -1 -9
-15 -4 -14 -13 -25 -20 -25 -17 0 -23 -33 -11 -54 8 -13 9 -12 10 6 0 12 7 28
15 37 8 8 15 19 15 25 0 5 5 13 11 17 8 5 10 -1 7 -20 -3 -14 -2 -26 3 -26 9
0 20 30 24 66 1 13 8 30 15 39 7 8 10 15 7 15 -3 0 -9 -5 -12 -10z"/>
<path d="M6751 4944 c0 -11 3 -14 6 -6 3 7 2 16 -1 19 -3 4 -6 -2 -5 -13z"/>
<path d="M6795 4920 c-3 -5 -1 -10 4 -10 6 0 11 5 11 10 0 6 -2 10 -4 10 -3 0
-8 -4 -11 -10z"/>
<path d="M6610 4741 c0 -6 4 -13 10 -16 6 -3 7 1 4 9 -7 18 -14 21 -14 7z"/>
<path d="M6567 4603 c3 -7 6 -13 8 -13 2 0 5 6 8 13 3 8 -1 14 -8 14 -7 0 -11
-6 -8 -14z"/>
<path d="M6447 4453 c-4 -3 -7 -16 -7 -28 0 -11 -6 -27 -12 -35 -11 -12 -10
-12 4 -2 9 7 19 24 23 39 6 27 3 38 -8 26z"/>
<path d="M6362 4430 c-7 -12 -8 -20 -2 -20 5 0 10 5 10 11 0 8 6 7 17 -2 15
-13 15 -12 4 9 -14 27 -13 27 -29 2z"/>
<path d="M3590 4401 c0 -5 5 -13 10 -16 6 -3 10 -2 10 4 0 5 -4 13 -10 16 -5
3 -10 2 -10 -4z"/>
<path d="M1773 4133 c-18 -6 -16 -48 1 -62 20 -16 56 3 56 29 0 16 -29 42 -42
39 -2 0 -9 -3 -15 -6z"/>
<path d="M8422 4128 c-23 -23 -7 -68 25 -68 7 0 18 11 25 25 18 40 -20 73 -50
43z"/>
<path d="M3680 3991 c-82 -26 -142 -92 -155 -171 -14 -82 37 -174 118 -215 63
-31 98 -31 162 -1 83 39 125 103 125 188 -1 77 -57 162 -124 188 -36 13 -100
19 -126 11z m133 -110 c40 -37 42 -43 42 -96 0 -52 -3 -59 -37 -90 -62 -58
-136 -59 -182 -4 -82 97 -33 229 85 229 44 0 55 -5 92 -39z"/>
<path d="M3649 3883 c-13 -16 -12 -17 4 -4 16 13 21 21 13 21 -2 0 -10 -8 -17
-17z"/>
<path d="M3686 3839 c-20 -15 -26 -29 -26 -57 0 -43 7 -55 37 -71 41 -21 103
24 103 75 0 26 -46 74 -70 74 -10 0 -29 -9 -44 -21z m34 -84 c0 -12 -19 -12
-23 0 -4 9 -1 12 9 8 7 -3 14 -7 14 -8z"/>
<path d="M3570 3576 c0 -2 8 -10 18 -17 15 -13 16 -12 3 4 -13 16 -21 21 -21
13z"/>
<path d="M6420 3974 c-67 -29 -107 -88 -117 -174 -14 -120 107 -235 227 -215
108 18 195 136 176 239 -10 54 -62 122 -110 145 -50 25 -126 27 -176 5z m171
-93 c35 -35 39 -43 39 -91 0 -49 -3 -56 -44 -96 -33 -34 -51 -44 -75 -44 -72
0 -132 60 -133 133 -2 84 48 136 131 137 37 0 49 -5 82 -39z"/>
<path d="M6424 3878 l-19 -23 25 20 c14 11 27 21 29 22 2 2 0 3 -6 3 -5 0 -18
-10 -29 -22z"/>
<path d="M6456 3829 c-38 -30 -36 -80 4 -109 38 -27 71 -21 95 16 51 78 -26
150 -99 93z m67 -54 c8 -19 -12 -30 -26 -15 -9 10 -9 11 2 5 11 -6 13 -4 8 8
-3 10 -2 17 2 17 5 0 11 -7 14 -15z"/>
<path d="M2925 3950 c-9 -28 2 -40 36 -40 29 0 35 12 23 44 -9 23 -51 20 -59
-4z"/>
<path d="M7260 3965 c-19 -23 -8 -50 23 -53 23 -3 27 0 27 22 0 32 -32 52 -50
31z"/>
<path d="M6126 3973 c-6 -14 -5 -15 5 -6 7 7 10 15 7 18 -3 3 -9 -2 -12 -12z"/>
<path d="M8216 3301 c-4 -7 -5 -15 -2 -18 9 -9 19 4 14 18 -4 11 -6 11 -12 0z"/>
<path d="M2006 3303 c-11 -11 -6 -23 9 -23 8 0 15 4 15 9 0 13 -16 22 -24 14z"/>
<path d="M4130 2885 c0 -5 5 -17 10 -25 5 -8 10 -10 10 -5 0 6 -5 17 -10 25
-5 8 -10 11 -10 5z"/>
<path d="M2470 2600 c-6 -12 -10 -33 -8 -48 3 -24 7 -27 43 -27 34 0 41 4 50
29 8 24 6 31 -14 47 -30 25 -58 24 -71 -1z"/>
<path d="M4317 2983 c-14 -13 -6 -53 12 -63 15 -7 24 -5 41 8 19 16 21 22 11
40 -11 21 -50 30 -64 15z"/>
<path d="M5871 2984 c-33 -24 -25 -59 14 -59 25 0 31 4 33 26 4 37 -18 53 -47
33z"/>
<path d="M7690 2601 c-28 -54 6 -105 55 -83 32 15 40 47 21 77 -20 30 -61 33
-76 6z"/>
<path d="M7897 2760 c-7 -28 20 -55 40 -39 20 18 12 53 -13 57 -15 2 -23 -3
-27 -18z"/>
<path d="M2294 2765 c-9 -23 3 -45 25 -45 21 0 33 22 25 45 -4 8 -15 15 -25
15 -11 0 -22 -7 -25 -15z"/>
<path d="M5747 1804 c-14 -14 -7 -42 12 -47 26 -6 44 7 39 29 -3 19 -38 31
-51 18z"/>
<path d="M4452 1808 c-17 -17 -15 -47 4 -55 23 -9 51 23 38 44 -14 22 -27 26
-42 11z"/>
</g>
</svg>
